<svg width="81" height="80" viewBox="0 0 81 80" fill="none" xmlns="http://www.w3.org/2000/svg">
<path d="M25.6051 43.376C17.6071 44.998 13.0401 48.383 11.9071 53.528C10.9891 57.696 10.5121 60.998 10.5731 63.492C10.5731 65.44 12.1101 67 14.0671 67H54.8411C56.7081 67 58.4261 65.437 58.4261 63.492C58.4861 60.997 58.0601 57.692 57.0931 53.528C55.8981 48.383 51.3311 44.998 43.3951 43.376M46.6681 26.973C47.6791 27.299 48.5891 29.218 48.5891 30.278C48.5891 31.986 47.5771 33.948 45.6931 34.02C43.9331 38.857 39.8931 43.003 34.5231 43.003C29.1821 43.003 24.9651 38.945 23.3531 34.02C21.5181 33.952 20.4111 31.96 20.4111 30.278C20.4111 29.045 20.8391 27.77 21.8151 26.973M46.6681 26.973C42.1871 26.042 38.6201 24.272 35.9691 21.663C33.4771 19.18 31.0941 18.248 28.8211 18.869C26.3291 19.707 23.9941 22.409 21.8151 26.973M46.6681 26.973C46.4281 20.138 41.5401 13 34.2651 13C27.5731 13 22.5361 19.229 21.9571 25.623L21.8151 26.973M58.0711 47.582C64.5951 48.915 68.3491 51.697 69.3311 55.927C70.1261 59.35 70.4771 62.066 70.4271 64.117C70.4271 65.715 69.0151 67 67.4801 67H60.2361M55.4411 45.861C57.5201 44.5 59.0841 42.3 59.9611 39.892C61.5101 39.832 62.3421 38.219 62.3421 36.815C62.3421 35.944 61.5931 34.366 60.7621 34.099C57.0801 33.333 54.1471 31.879 51.9681 29.734C51.5332 29.2962 51.0651 28.8927 50.5681 28.527M60.7611 34.1C60.5641 28.481 56.5461 22.614 50.5661 22.614C49.9401 22.614 49.3311 22.681 48.7431 22.806" stroke="#0052B4" stroke-width="1.5" stroke-linecap="round" stroke-linejoin="round"/>
</svg>
