<svg width="80" height="80" viewBox="0 0 80 80" fill="none" xmlns="http://www.w3.org/2000/svg">
<path d="M39.95 10.35V4M46.4 34.7H39.95M39.95 34.7V53.15H32.7L26 41.35C24.467 38.483 23.7 36.017 23.7 33.95C23.7 25.19 31.264 17.9 39.95 17.9C48.676 17.9 56.2 25.15 56.2 33.95C56.2 36.883 55.483 39.55 54.05 41.95L47.5 53.15M39.95 34.7H33.6M15.3 34.7H9M64.6 34.7H70.9M57.35 17.25L61.8 12.9M22.55 17.25L18.1 12.9M33.5 57.65H46.4M33.5 62.15H46.4C46.4 65.644 43.465 68.65 39.95 68.65C36.43 68.65 33.5 65.654 33.5 62.15Z" stroke="#0052B4" stroke-width="1.5" stroke-linecap="round" stroke-linejoin="round"/>
</svg>
