<svg width="80" height="80" viewBox="0 0 80 80" fill="none" xmlns="http://www.w3.org/2000/svg">
<path d="M43.792 58.2C43.792 58.0011 43.713 57.8103 43.5723 57.6697C43.4317 57.529 43.2409 57.45 43.042 57.45C42.8431 57.45 42.6523 57.529 42.5117 57.6697C42.371 57.8103 42.292 58.0011 42.292 58.2H43.792ZM42.292 60.2C42.292 60.3989 42.371 60.5897 42.5117 60.7303C42.6523 60.871 42.8431 60.95 43.042 60.95C43.2409 60.95 43.4317 60.871 43.5723 60.7303C43.713 60.5897 43.792 60.3989 43.792 60.2H42.292ZM37.758 58.2C37.758 58.0011 37.679 57.8103 37.5383 57.6697C37.3977 57.529 37.2069 57.45 37.008 57.45C36.8091 57.45 36.6183 57.529 36.4777 57.6697C36.337 57.8103 36.258 58.0011 36.258 58.2H37.758ZM36.258 60.2C36.258 60.3989 36.337 60.5897 36.4777 60.7303C36.6183 60.871 36.8091 60.95 37.008 60.95C37.2069 60.95 37.3977 60.871 37.5383 60.7303C37.679 60.5897 37.758 60.3989 37.758 60.2H36.258ZM43.285 66.9C43.285 66.7011 43.206 66.5103 43.0653 66.3697C42.9247 66.229 42.7339 66.15 42.535 66.15C42.3361 66.15 42.1453 66.229 42.0047 66.3697C41.864 66.5103 41.785 66.7011 41.785 66.9H43.285ZM38.265 66.9C38.265 66.7011 38.186 66.5103 38.0453 66.3697C37.9047 66.229 37.7139 66.15 37.515 66.15C37.3161 66.15 37.1253 66.229 36.9847 66.3697C36.844 66.5103 36.765 66.7011 36.765 66.9H38.265ZM36.482 52.734C36.6243 52.87 36.8145 52.9445 37.0113 52.9416C37.2081 52.9386 37.3959 52.8584 37.5341 52.7182C37.6723 52.578 37.7499 52.3891 37.75 52.1923C37.7502 51.9954 37.673 51.8064 37.535 51.666L36.482 52.734ZM28.978 51.666C28.9061 51.7347 28.8485 51.8171 28.8087 51.9082C28.7689 51.9994 28.7476 52.0976 28.7461 52.1971C28.7446 52.2966 28.7629 52.3954 28.8 52.4877C28.837 52.58 28.8921 52.6641 28.962 52.7349C29.0318 52.8058 29.1151 52.862 29.2069 52.9004C29.2987 52.9387 29.3972 52.9584 29.4967 52.9584C29.5962 52.9583 29.6946 52.9384 29.7864 52.8999C29.8781 52.8614 29.9613 52.805 30.031 52.734L28.978 51.666ZM30.031 44.266C29.8886 44.13 29.6985 44.0555 29.5017 44.0584C29.3049 44.0614 29.1171 44.1416 28.9789 44.2818C28.8407 44.422 28.7631 44.6109 28.763 44.8077C28.7628 45.0046 28.84 45.1936 28.978 45.334L30.031 44.266ZM37.535 45.334C37.6069 45.2653 37.6645 45.1829 37.7043 45.0918C37.7441 45.0006 37.7654 44.9024 37.7669 44.8029C37.7684 44.7034 37.7501 44.6046 37.713 44.5123C37.676 44.42 37.6209 44.3359 37.551 44.2651C37.4812 44.1942 37.3979 44.138 37.3061 44.0996C37.2143 44.0613 37.1158 44.0416 37.0163 44.0416C36.9168 44.0417 36.8184 44.0616 36.7266 44.1001C36.6349 44.1386 36.5517 44.195 36.482 44.266L37.535 45.334ZM43.569 44.266C43.4993 44.195 43.4161 44.1386 43.3244 44.1001C43.2326 44.0616 43.1342 44.0417 43.0347 44.0416C42.9352 44.0416 42.8367 44.0613 42.7449 44.0996C42.6531 44.138 42.5698 44.1942 42.5 44.2651C42.4301 44.3359 42.375 44.42 42.338 44.5123C42.3009 44.6046 42.2826 44.7034 42.2841 44.8029C42.2856 44.9024 42.3069 45.0006 42.3467 45.0918C42.3865 45.1829 42.444 45.2653 42.516 45.334L43.569 44.266ZM51.073 45.334C51.211 45.1936 51.2882 45.0046 51.288 44.8077C51.2878 44.6109 51.2103 44.422 51.0721 44.2818C50.9339 44.1416 50.7461 44.0614 50.5493 44.0584C50.3525 44.0555 50.1624 44.13 50.02 44.266L51.073 45.334ZM50.02 52.734C50.1624 52.87 50.3525 52.9445 50.5493 52.9416C50.7461 52.9386 50.9339 52.8584 51.0721 52.7182C51.2103 52.578 51.2878 52.3891 51.288 52.1923C51.2882 51.9954 51.211 51.8064 51.073 51.666L50.02 52.734ZM42.516 51.666C42.378 51.8064 42.3008 51.9954 42.301 52.1923C42.3012 52.3891 42.3787 52.578 42.5169 52.7182C42.6551 52.8584 42.8429 52.9386 43.0397 52.9416C43.2365 52.9445 43.4266 52.87 43.569 52.734L42.516 51.666ZM47.555 64L47.261 63.31L46.805 63.504V64H47.555ZM32.547 64H33.297V63.5L32.835 63.308L32.547 64ZM23.5 16.4C23.5 16.2011 23.421 16.0103 23.2803 15.8697C23.1397 15.729 22.9489 15.65 22.75 15.65C22.5511 15.65 22.3603 15.729 22.2197 15.8697C22.079 16.0103 22 16.2011 22 16.4H23.5ZM22 18.1C22 18.2989 22.079 18.4897 22.2197 18.6303C22.3603 18.771 22.5511 18.85 22.75 18.85C22.9489 18.85 23.1397 18.771 23.2803 18.6303C23.421 18.4897 23.5 18.2989 23.5 18.1H22ZM19.65 16.4C19.65 16.2011 19.571 16.0103 19.4303 15.8697C19.2897 15.729 19.0989 15.65 18.9 15.65C18.7011 15.65 18.5103 15.729 18.3697 15.8697C18.229 16.0103 18.15 16.2011 18.15 16.4H19.65ZM18.15 18.1C18.15 18.2989 18.229 18.4897 18.3697 18.6303C18.5103 18.771 18.7011 18.85 18.9 18.85C19.0989 18.85 19.2897 18.771 19.4303 18.6303C19.571 18.4897 19.65 18.2989 19.65 18.1H18.15ZM15.7 16.4C15.7 16.2011 15.621 16.0103 15.4803 15.8697C15.3397 15.729 15.1489 15.65 14.95 15.65C14.7511 15.65 14.5603 15.729 14.4197 15.8697C14.279 16.0103 14.2 16.2011 14.2 16.4H15.7ZM14.2 18.1C14.2 18.2989 14.279 18.4897 14.4197 18.6303C14.5603 18.771 14.7511 18.85 14.95 18.85C15.1489 18.85 15.3397 18.771 15.4803 18.6303C15.621 18.4897 15.7 18.2989 15.7 18.1H14.2ZM23.7 61.75C23.8989 61.75 24.0897 61.671 24.2303 61.5303C24.371 61.3897 24.45 61.1989 24.45 61C24.45 60.8011 24.371 60.6103 24.2303 60.4697C24.0897 60.329 23.8989 60.25 23.7 60.25V61.75ZM56.3 60.25C56.1011 60.25 55.9103 60.329 55.7697 60.4697C55.629 60.6103 55.55 60.8011 55.55 61C55.55 61.1989 55.629 61.3897 55.7697 61.5303C55.9103 61.671 56.1011 61.75 56.3 61.75V60.25ZM42.292 58.2V60.2H43.792V58.2H42.292ZM36.258 58.2V60.2H37.758V58.2H36.258ZM41.785 66.9V70H43.285V66.9H41.785ZM36.765 66.9V70H38.265V66.9H36.765ZM46.805 64V67.15H48.305V64H46.805ZM44.615 69.25H42.535V70.75H44.615V69.25ZM42.535 69.25H37.515V70.75H42.535V69.25ZM37.515 69.25H35.487V70.75H37.515V69.25ZM33.297 67.15V64H31.797V67.15H33.297ZM9 23.45H71V21.95H9V23.45ZM22 16.4V18.1H23.5V16.4H22ZM18.15 16.4V18.1H19.65V16.4H18.15ZM14.2 16.4V18.1H15.7V16.4H14.2ZM23.7 60.25H15V61.75H23.7V60.25ZM9.75 22.7V18H8.25V22.7H9.75ZM15 12.75H65V11.25H15V12.75ZM70.25 18V22.7H71.75V18H70.25ZM70.25 22.7V55H71.75V22.7H70.25ZM65 60.25H56.3V61.75H65V60.25ZM9.75 55V22.7H8.25V55H9.75ZM35.487 69.25C34.311 69.25 33.297 68.285 33.297 67.15H31.797C31.797 69.183 33.554 70.75 35.487 70.75V69.25ZM46.805 67.15C46.805 68.285 45.791 69.25 44.615 69.25V70.75C46.548 70.75 48.305 69.183 48.305 67.15H46.805ZM32.835 63.308C26.792 60.789 22.75 54.309 22.75 47.8H21.25C21.25 54.873 25.619 61.925 32.258 64.692L32.835 63.308ZM22.75 47.8C22.75 38.351 30.64 30.75 40.05 30.75V29.25C29.843 29.25 21.25 37.492 21.25 47.8H22.75ZM40.05 30.75C49.476 30.75 57.25 38.38 57.25 47.8H58.75C58.75 37.534 50.287 29.25 40.05 29.25V30.75ZM57.25 47.8C57.25 54.15 53.152 60.8 47.26 63.31L47.849 64.69C54.332 61.927 58.75 54.709 58.75 47.8H57.25ZM37.535 51.666L30.031 44.266L28.978 45.334L36.482 52.734L37.535 51.666ZM36.482 44.266L28.978 51.666L30.031 52.734L37.535 45.334L36.482 44.266ZM42.516 45.334L50.02 52.734L51.073 51.666L43.569 44.266L42.516 45.334ZM43.569 52.734L51.073 45.334L50.02 44.266L42.516 51.666L43.569 52.734ZM70.25 55C70.25 57.9 67.9 60.25 65 60.25V61.75C66.7902 61.75 68.5071 61.0388 69.773 59.773C71.0388 58.5071 71.75 56.7902 71.75 55H70.25ZM65 12.75C67.9 12.75 70.25 15.1 70.25 18H71.75C71.75 16.2098 71.0388 14.4929 69.773 13.227C68.5071 11.9612 66.7902 11.25 65 11.25V12.75ZM9.75 18C9.75 15.1 12.1 12.75 15 12.75V11.25C13.2098 11.25 11.4929 11.9612 10.227 13.227C8.96116 14.4929 8.25 16.2098 8.25 18H9.75ZM15 60.25C13.6076 60.25 12.2723 59.6969 11.2877 58.7123C10.3031 57.7277 9.75 56.3924 9.75 55H8.25C8.25 56.7902 8.96116 58.5071 10.227 59.773C11.4929 61.0388 13.2098 61.75 15 61.75V60.25Z" fill="#0052B4"/>
</svg>
