<svg width="81" height="80" viewBox="0 0 81 80" fill="none" xmlns="http://www.w3.org/2000/svg">
<path d="M67.09 42.616L73.56 59.94C73.924 60.911 72.966 61.855 72 61.477L67.722 59.807C67.4443 59.6985 67.1361 59.6973 66.8575 59.8036C66.5789 59.9099 66.3499 60.1161 66.215 60.382L64.114 64.536C63.642 65.468 62.288 65.395 61.92 64.417L58.961 56.562M59.917 47.084L53.455 64.383C53.091 65.359 51.742 65.439 51.265 64.513L49.124 60.36C48.9889 60.0983 48.7624 59.8955 48.4875 59.79C48.2125 59.6845 47.9084 59.6838 47.633 59.788L43.314 61.421C42.35 61.785 41.405 60.844 41.766 59.878L48.251 42.517M44.901 17.616C43.1 17.144 31.019 13.511 31.019 13.511C28.802 12.879 27.177 12.856 24.966 13.511C24.966 13.511 12.886 17.144 11.085 17.616C8.365 18.328 6.5 20.66 6.5 23.739C6.5 23.781 6.528 28.99 6.5 32.668C6.5 48.373 14.7 55.647 26.522 62.088C27.425 62.548 28.56 62.548 29.463 62.088C33.44 59.921 37.007 57.66 39.989 55.016M64.507 28.812C64.507 32.596 61.422 35.626 57.647 35.626C53.89 35.626 50.833 32.564 50.833 28.812C50.833 25.052 53.875 21.952 57.647 21.952C61.437 21.952 64.507 25.019 64.507 28.812ZM71.833 28.814C71.833 36.609 65.492 42.952 57.695 42.952C49.957 42.952 43.508 36.566 43.508 28.814C43.508 21.046 49.93 14.626 57.695 14.626C65.518 14.626 71.833 21.002 71.833 28.814Z" stroke="#0052B4" stroke-width="1.5" stroke-linecap="round" stroke-linejoin="round"/>
</svg>
