<svg width="49" height="48" viewBox="0 0 49 48" fill="none" xmlns="http://www.w3.org/2000/svg">
<path d="M16.0824 34.247L13.1024 41.255C13.0564 41.3635 13.0434 41.483 13.065 41.5988C13.0865 41.7146 13.1417 41.8215 13.2236 41.9062C13.3055 41.9909 13.4105 42.0495 13.5255 42.0749C13.6405 42.1003 13.7605 42.0913 13.8704 42.049L17.0834 40.809C17.3269 40.715 17.5974 40.7199 17.8373 40.8227C18.0772 40.9254 18.2675 41.1179 18.3674 41.359L19.7414 44.681C19.7866 44.7901 19.863 44.8834 19.961 44.9493C20.0591 45.0151 20.1743 45.0506 20.2924 45.0512C20.4105 45.0519 20.5261 45.0176 20.6249 44.9529C20.7236 44.8881 20.801 44.7956 20.8474 44.687L23.4444 38.604C23.4999 38.4735 23.5925 38.3623 23.7108 38.284C23.829 38.2058 23.9676 38.1641 24.1094 38.164C24.3994 38.164 24.6614 38.337 24.7744 38.604L27.3714 44.687C27.4178 44.7956 27.4952 44.8881 27.5939 44.9529C27.6927 45.0176 27.8083 45.0519 27.9264 45.0512C28.0445 45.0506 28.1597 45.0151 28.2578 44.9493C28.3558 44.8834 28.4322 44.7901 28.4774 44.681L29.8514 41.36C29.9513 41.1189 30.1415 40.9264 30.3814 40.8237C30.6214 40.7209 30.8919 40.716 31.1354 40.81L34.3304 42.042C34.4409 42.0847 34.5615 42.0937 34.6771 42.068C34.7927 42.0422 34.8981 41.9828 34.98 41.8973C35.0619 41.8117 35.1167 41.7039 35.1374 41.5873C35.1581 41.4706 35.1438 41.3505 35.0964 41.242L32.0404 34.247M15.1324 19.435H17.9494M20.8764 24.213L30.2404 14.849M8.0564 19.149C8.0564 17.946 9.6664 16.523 10.3494 15.613C11.2164 14.457 11.5354 13.355 11.8784 11.983C12.1884 10.741 11.7644 8.769 12.8344 7.683C13.9044 6.595 15.5904 6.905 16.7514 6.727C18.4024 6.473 19.2324 6.06 20.5744 5.102C21.4714 4.462 22.8794 3 24.1094 3C25.3394 3 26.7484 4.461 27.6454 5.102C28.9864 6.06 29.8154 6.472 31.4674 6.727C32.6274 6.905 34.3154 6.595 35.3854 7.682C36.4554 8.769 36.0304 10.742 36.3404 11.982C36.6834 13.355 37.0024 14.457 37.8704 15.613C38.5514 16.523 40.1624 17.946 40.1624 19.149C40.1624 20.352 38.5524 21.775 37.8694 22.684C37.0024 23.84 36.6834 24.943 36.3404 26.316C36.0304 27.556 36.4554 29.529 35.3854 30.616C34.3154 31.702 32.6284 31.392 31.4674 31.571C29.8164 31.825 28.9864 32.237 27.6454 33.196C26.7484 33.836 25.3394 35.298 24.1094 35.298C22.8794 35.298 21.4714 33.836 20.5744 33.196C19.2324 32.237 18.4024 31.826 16.7514 31.571C15.5914 31.392 13.9034 31.702 12.8344 30.616C11.7644 29.529 12.1884 27.556 11.8784 26.316C11.5354 24.943 11.2164 23.84 10.3494 22.684C9.6674 21.774 8.0564 20.352 8.0564 19.149ZM28.4244 25.742C28.6754 25.7421 28.924 25.6928 29.156 25.5968C29.388 25.5008 29.5988 25.3601 29.7763 25.1826C29.9539 25.0052 30.0947 24.7945 30.1908 24.5625C30.2869 24.3306 30.3364 24.082 30.3364 23.831C30.3364 23.58 30.2869 23.3314 30.1908 23.0995C30.0947 22.8675 29.9539 22.6568 29.7763 22.4794C29.5988 22.3019 29.388 22.1612 29.156 22.0652C28.924 21.9692 28.6754 21.9199 28.4244 21.92C27.9179 21.9203 27.4323 22.1216 27.0741 22.4797C26.716 22.8379 26.5147 23.3235 26.5144 23.83C26.5141 24.081 26.5633 24.3296 26.6592 24.5615C26.7551 24.7935 26.8957 25.0043 27.0731 25.1819C27.2505 25.3594 27.4611 25.5003 27.693 25.5964C27.9249 25.6925 28.1734 25.742 28.4244 25.742ZM22.7874 17.047C23.0384 17.0469 23.2868 16.9973 23.5186 16.9012C23.7504 16.805 23.961 16.6641 24.1384 16.4866C24.3157 16.309 24.4564 16.0983 24.5523 15.8664C24.6482 15.6345 24.6975 15.386 24.6974 15.135C24.6971 14.6285 24.4958 14.1429 24.1377 13.7847C23.7795 13.4266 23.2939 13.2253 22.7874 13.225C22.5364 13.2249 22.2879 13.2742 22.056 13.3701C21.8241 13.466 21.6134 13.6067 21.4358 13.784C21.2583 13.9614 21.1174 14.172 21.0212 14.4038C20.9251 14.6356 20.8755 14.884 20.8754 15.135C20.8754 16.191 21.7314 17.047 22.7874 17.047Z" stroke="#F7FAFC" stroke-width="1.5" stroke-linecap="round" stroke-linejoin="round"/>
</svg>
