<svg width="698" height="643" viewBox="0 0 698 643" fill="none" xmlns="http://www.w3.org/2000/svg">
<path d="M686.936 145.913H529.314C529.314 145.913 544.948 103.234 568.992 103.234C593.036 103.234 600.589 132.703 600.589 132.703C600.589 132.703 616.816 116.691 630.141 116.691C643.465 116.691 655.059 137.849 655.059 137.849C655.059 137.849 673.875 126.47 686.936 145.913Z" fill="#EBEBEB"/>
<path d="M549.301 55.8551H475.652C475.652 55.8551 492.143 32.0091 505.072 32.0091C518.001 32.0091 521.877 47.9065 521.877 47.9065C521.877 47.9065 531.029 40.4855 539.506 41.8048C547.982 43.1241 549.301 55.8551 549.301 55.8551Z" fill="#EBEBEB"/>
<path d="M154.538 143.076H11.0664C11.0664 143.076 30.7237 99.1772 51.7333 96.4726C72.7429 93.7681 82.8025 129.059 82.8025 129.059C82.8025 129.059 96.3581 116.575 107.028 116.575C117.697 116.575 125.91 133.066 125.91 133.066C125.91 133.066 147.233 121.753 154.538 143.076Z" fill="#EBEBEB"/>
<path d="M303.355 36.9894H206.453C206.453 36.9894 223.093 5.21117 241.084 4.74943C259.076 4.28768 268.641 28.7934 268.641 28.7934C268.641 28.7934 296.808 6.25011 303.355 36.9894Z" fill="#EBEBEB"/>
<path d="M140.142 258.481H43.2246C43.2246 258.481 59.8641 226.702 77.8558 226.241C95.8475 225.779 105.412 250.285 105.412 250.285C105.412 250.285 133.579 227.807 140.142 258.481Z" fill="#EBEBEB"/>
<path d="M357.379 118.637H291.959C291.959 118.637 303.206 97.1982 315.393 96.8684C327.58 96.5386 333.995 113.096 333.995 113.096C333.995 113.096 352.959 97.8743 357.379 118.637Z" fill="#EBEBEB"/>
<path d="M255.908 210.079H190.488C190.488 210.079 201.719 188.641 213.906 188.311C226.092 187.981 232.507 204.555 232.507 204.555C232.507 204.555 251.472 189.334 255.908 210.079Z" fill="#EBEBEB"/>
<path d="M331.932 196.474H314.963V216.511H331.932V196.474Z" fill="#DBDBDB"/>
<path d="M342.684 196.474H331.932V217.253H342.684V196.474Z" fill="#C7C7C7"/>
<path d="M343.394 205.33H332.725V217.253H343.394V205.33Z" fill="#DBDBDB"/>
<path d="M350.055 205.33H343.393V217.253H350.055V205.33Z" fill="#C7C7C7"/>
<path d="M335.89 215.225H308.449V314.946H335.89V215.225Z" fill="#EBEBEB"/>
<path d="M320.207 219.496H311.582V223.025H320.207V219.496Z" fill="white"/>
<path d="M331.24 219.496H322.615V223.025H331.24V219.496Z" fill="white"/>
<path d="M320.207 225.482H311.582V229.011H320.207V225.482Z" fill="white"/>
<path d="M331.24 225.482H322.615V229.011H331.24V225.482Z" fill="white"/>
<path d="M320.207 231.468H311.582V234.997H320.207V231.468Z" fill="white"/>
<path d="M331.24 231.468H322.615V234.997H331.24V231.468Z" fill="white"/>
<path d="M320.207 237.455H311.582V240.984H320.207V237.455Z" fill="white"/>
<path d="M331.24 237.455H322.615V240.984H331.24V237.455Z" fill="white"/>
<path d="M320.207 243.441H311.582V246.97H320.207V243.441Z" fill="white"/>
<path d="M331.24 243.441H322.615V246.97H331.24V243.441Z" fill="white"/>
<path d="M320.207 249.427H311.582V252.956H320.207V249.427Z" fill="white"/>
<path d="M331.24 249.427H322.615V252.956H331.24V249.427Z" fill="white"/>
<path d="M320.207 255.413H311.582V258.942H320.207V255.413Z" fill="white"/>
<path d="M331.24 255.413H322.615V258.942H331.24V255.413Z" fill="white"/>
<path d="M320.207 261.4H311.582V264.929H320.207V261.4Z" fill="white"/>
<path d="M331.24 261.4H322.615V264.929H331.24V261.4Z" fill="white"/>
<path d="M320.207 267.386H311.582V270.915H320.207V267.386Z" fill="white"/>
<path d="M331.24 267.386H322.615V270.915H331.24V267.386Z" fill="white"/>
<path d="M320.207 273.372H311.582V276.901H320.207V273.372Z" fill="white"/>
<path d="M331.24 273.372H322.615V276.901H331.24V273.372Z" fill="white"/>
<path d="M320.207 279.358H311.582V282.887H320.207V279.358Z" fill="white"/>
<path d="M331.24 279.358H322.615V282.887H331.24V279.358Z" fill="white"/>
<path d="M320.207 285.345H311.582V288.874H320.207V285.345Z" fill="white"/>
<path d="M331.24 285.345H322.615V288.874H331.24V285.345Z" fill="white"/>
<path d="M320.207 291.331H311.582V294.86H320.207V291.331Z" fill="white"/>
<path d="M331.24 291.331H322.615V294.86H331.24V291.331Z" fill="white"/>
<path d="M320.207 297.317H311.582V300.846H320.207V297.317Z" fill="white"/>
<path d="M331.24 297.317H322.615V300.846H331.24V297.317Z" fill="white"/>
<path d="M358.121 215.225H335.891V314.946H358.121V215.225Z" fill="#C7C7C7"/>
<path d="M348.803 300.83H355.895V297.301H348.803V300.83Z" fill="#EBEBEB"/>
<path d="M339.733 300.83H346.824V297.301H339.733V300.83Z" fill="#EBEBEB"/>
<path d="M348.803 294.843H355.895V291.314H348.803V294.843Z" fill="#EBEBEB"/>
<path d="M339.733 294.843H346.824V291.314H339.733V294.843Z" fill="#EBEBEB"/>
<path d="M348.803 288.857H355.895V285.328H348.803V288.857Z" fill="#EBEBEB"/>
<path d="M339.733 288.857H346.824V285.328H339.733V288.857Z" fill="#EBEBEB"/>
<path d="M348.803 282.871H355.895V279.342H348.803V282.871Z" fill="#EBEBEB"/>
<path d="M339.733 282.871H346.824V279.342H339.733V282.871Z" fill="#EBEBEB"/>
<path d="M348.803 276.901H355.895V273.372H348.803V276.901Z" fill="#EBEBEB"/>
<path d="M339.733 276.901H346.824V273.372H339.733V276.901Z" fill="#EBEBEB"/>
<path d="M348.803 270.915H355.895V267.386H348.803V270.915Z" fill="#EBEBEB"/>
<path d="M339.733 270.915H346.824V267.386H339.733V270.915Z" fill="#EBEBEB"/>
<path d="M348.803 264.929H355.895V261.4H348.803V264.929Z" fill="#EBEBEB"/>
<path d="M339.733 264.929H346.824V261.4H339.733V264.929Z" fill="#EBEBEB"/>
<path d="M348.803 258.942H355.895V255.413H348.803V258.942Z" fill="#EBEBEB"/>
<path d="M339.733 258.942H346.824V255.413H339.733V258.942Z" fill="#EBEBEB"/>
<path d="M348.803 252.956H355.895V249.427H348.803V252.956Z" fill="#EBEBEB"/>
<path d="M339.733 252.956H346.824V249.427H339.733V252.956Z" fill="#EBEBEB"/>
<path d="M348.803 246.97H355.895V243.441H348.803V246.97Z" fill="#EBEBEB"/>
<path d="M339.733 246.97H346.824V243.441H339.733V246.97Z" fill="#EBEBEB"/>
<path d="M348.803 240.984H355.895V237.455H348.803V240.984Z" fill="#EBEBEB"/>
<path d="M339.733 240.984H346.824V237.455H339.733V240.984Z" fill="#EBEBEB"/>
<path d="M348.803 234.997H355.895V231.468H348.803V234.997Z" fill="#EBEBEB"/>
<path d="M339.733 234.997H346.824V231.468H339.733V234.997Z" fill="#EBEBEB"/>
<path d="M348.803 229.028H355.895V225.499H348.803V229.028Z" fill="#EBEBEB"/>
<path d="M339.733 229.028H346.824V225.499H339.733V229.028Z" fill="#EBEBEB"/>
<path d="M348.803 223.041H355.895V219.512H348.803V223.041Z" fill="#EBEBEB"/>
<path d="M339.733 223.041H346.824V219.512H339.733V223.041Z" fill="#EBEBEB"/>
<path d="M533.635 173.552H506.672V314.929H533.635V173.552Z" fill="#DBDBDB"/>
<path d="M516.104 178.153H510.859V183.545H516.104V178.153Z" fill="#EBEBEB"/>
<path d="M522.799 178.153H517.555V183.545H522.799V178.153Z" fill="#EBEBEB"/>
<path d="M516.104 187.305H510.859V192.698H516.104V187.305Z" fill="#EBEBEB"/>
<path d="M522.799 187.305H517.555V192.698H522.799V187.305Z" fill="#EBEBEB"/>
<path d="M516.104 196.474H510.859V201.867H516.104V196.474Z" fill="#EBEBEB"/>
<path d="M522.799 196.474H517.555V201.867H522.799V196.474Z" fill="#EBEBEB"/>
<path d="M516.104 205.643H510.859V211.036H516.104V205.643Z" fill="#EBEBEB"/>
<path d="M522.799 205.643H517.555V211.036H522.799V205.643Z" fill="#EBEBEB"/>
<path d="M516.104 214.812H510.859V220.205H516.104V214.812Z" fill="#EBEBEB"/>
<path d="M522.799 214.812H517.555V220.205H522.799V214.812Z" fill="#EBEBEB"/>
<path d="M516.104 223.965H510.859V229.357H516.104V223.965Z" fill="#EBEBEB"/>
<path d="M522.799 223.965H517.555V229.357H522.799V223.965Z" fill="#EBEBEB"/>
<path d="M516.104 233.134H510.859V238.526H516.104V233.134Z" fill="#EBEBEB"/>
<path d="M522.799 233.134H517.555V238.526H522.799V233.134Z" fill="#EBEBEB"/>
<path d="M516.104 242.303H510.859V247.695H516.104V242.303Z" fill="#EBEBEB"/>
<path d="M522.799 242.303H517.555V247.695H522.799V242.303Z" fill="#EBEBEB"/>
<path d="M516.104 251.472H510.859V256.865H516.104V251.472Z" fill="#EBEBEB"/>
<path d="M522.799 251.472H517.555V256.865H522.799V251.472Z" fill="#EBEBEB"/>
<path d="M516.104 260.624H510.859V266.017H516.104V260.624Z" fill="#EBEBEB"/>
<path d="M522.799 260.624H517.555V266.017H522.799V260.624Z" fill="#EBEBEB"/>
<path d="M516.104 269.794H510.859V275.186H516.104V269.794Z" fill="#EBEBEB"/>
<path d="M522.799 269.794H517.555V275.186H522.799V269.794Z" fill="#EBEBEB"/>
<path d="M516.104 278.963H510.859V284.355H516.104V278.963Z" fill="#EBEBEB"/>
<path d="M522.799 278.963H517.555V284.355H522.799V278.963Z" fill="#EBEBEB"/>
<path d="M516.104 288.132H510.859V293.524H516.104V288.132Z" fill="#EBEBEB"/>
<path d="M522.799 288.132H517.555V293.524H522.799V288.132Z" fill="#EBEBEB"/>
<path d="M516.104 297.284H510.859V302.677H516.104V297.284Z" fill="#EBEBEB"/>
<path d="M524.219 302.693H529.463V297.301H524.219V302.693Z" fill="#EBEBEB"/>
<path d="M524.219 293.524H529.463V288.132H524.219V293.524Z" fill="#EBEBEB"/>
<path d="M524.219 284.355H529.463V278.963H524.219V284.355Z" fill="#EBEBEB"/>
<path d="M524.219 275.203H529.463V269.81H524.219V275.203Z" fill="#EBEBEB"/>
<path d="M524.219 266.034H529.463V260.641H524.219V266.034Z" fill="#EBEBEB"/>
<path d="M524.219 256.865H529.463V251.472H524.219V256.865Z" fill="#EBEBEB"/>
<path d="M524.219 247.696H529.463V242.303H524.219V247.696Z" fill="#EBEBEB"/>
<path d="M524.219 238.543H529.463V233.15H524.219V238.543Z" fill="#EBEBEB"/>
<path d="M524.219 229.374H529.463V223.981H524.219V229.374Z" fill="#EBEBEB"/>
<path d="M524.219 220.205H529.463V214.812H524.219V220.205Z" fill="#EBEBEB"/>
<path d="M524.219 211.036H529.463V205.643H524.219V211.036Z" fill="#EBEBEB"/>
<path d="M524.219 201.883H529.463V196.491H524.219V201.883Z" fill="#EBEBEB"/>
<path d="M524.219 192.714H529.463V187.322H524.219V192.714Z" fill="#EBEBEB"/>
<path d="M524.219 183.529H529.463V178.136H524.219V183.529Z" fill="#EBEBEB"/>
<path d="M522.799 297.284H517.555V302.677H522.799V297.284Z" fill="#EBEBEB"/>
<path d="M554.892 173.552H533.635V314.929H554.892V173.552Z" fill="#A6A6A6"/>
<path d="M548.378 302.693H552.715V297.301H548.378V302.693Z" fill="#C7C7C7"/>
<path d="M542.837 302.693H547.174V297.301H542.837V302.693Z" fill="#C7C7C7"/>
<path d="M548.378 293.524H552.715V288.132H548.378V293.524Z" fill="#C7C7C7"/>
<path d="M542.837 293.524H547.174V288.132H542.837V293.524Z" fill="#C7C7C7"/>
<path d="M548.378 284.355H552.715V278.963H548.378V284.355Z" fill="#C7C7C7"/>
<path d="M542.837 284.355H547.174V278.963H542.837V284.355Z" fill="#C7C7C7"/>
<path d="M548.378 275.203H552.715V269.81H548.378V275.203Z" fill="#C7C7C7"/>
<path d="M542.837 275.203H547.174V269.81H542.837V275.203Z" fill="#C7C7C7"/>
<path d="M548.378 266.034H552.715V260.641H548.378V266.034Z" fill="#C7C7C7"/>
<path d="M542.837 266.034H547.174V260.641H542.837V266.034Z" fill="#C7C7C7"/>
<path d="M548.378 256.865H552.715V251.472H548.378V256.865Z" fill="#C7C7C7"/>
<path d="M542.837 256.865H547.174V251.472H542.837V256.865Z" fill="#C7C7C7"/>
<path d="M548.378 247.696H552.715V242.303H548.378V247.696Z" fill="#C7C7C7"/>
<path d="M542.837 247.696H547.174V242.303H542.837V247.696Z" fill="#C7C7C7"/>
<path d="M548.378 238.543H552.715V233.15H548.378V238.543Z" fill="#C7C7C7"/>
<path d="M542.837 238.543H547.174V233.15H542.837V238.543Z" fill="#C7C7C7"/>
<path d="M548.378 229.374H552.715V223.981H548.378V229.374Z" fill="#C7C7C7"/>
<path d="M542.837 229.374H547.174V223.981H542.837V229.374Z" fill="#C7C7C7"/>
<path d="M548.378 220.205H552.715V214.812H548.378V220.205Z" fill="#C7C7C7"/>
<path d="M542.837 220.205H547.174V214.812H542.837V220.205Z" fill="#C7C7C7"/>
<path d="M548.378 211.036H552.715V205.643H548.378V211.036Z" fill="#C7C7C7"/>
<path d="M542.837 211.036H547.174V205.643H542.837V211.036Z" fill="#C7C7C7"/>
<path d="M548.378 201.883H552.715V196.491H548.378V201.883Z" fill="#C7C7C7"/>
<path d="M542.837 201.883H547.174V196.491H542.837V201.883Z" fill="#C7C7C7"/>
<path d="M548.378 192.714H552.715V187.322H548.378V192.714Z" fill="#C7C7C7"/>
<path d="M542.837 192.714H547.174V187.322H542.837V192.714Z" fill="#C7C7C7"/>
<path d="M548.378 183.529H552.715V178.136H548.378V183.529Z" fill="#C7C7C7"/>
<path d="M541.681 178.153H537.344V183.545H541.681V178.153Z" fill="#C7C7C7"/>
<path d="M541.681 187.305H537.344V192.698H541.681V187.305Z" fill="#C7C7C7"/>
<path d="M541.681 196.474H537.344V201.867H541.681V196.474Z" fill="#C7C7C7"/>
<path d="M541.681 205.643H537.344V211.036H541.681V205.643Z" fill="#C7C7C7"/>
<path d="M541.681 214.812H537.344V220.205H541.681V214.812Z" fill="#C7C7C7"/>
<path d="M541.681 223.965H537.344V229.357H541.681V223.965Z" fill="#C7C7C7"/>
<path d="M541.681 233.134H537.344V238.526H541.681V233.134Z" fill="#C7C7C7"/>
<path d="M541.681 242.303H537.344V247.695H541.681V242.303Z" fill="#C7C7C7"/>
<path d="M541.681 251.472H537.344V256.865H541.681V251.472Z" fill="#C7C7C7"/>
<path d="M541.681 260.624H537.344V266.017H541.681V260.624Z" fill="#C7C7C7"/>
<path d="M541.681 269.794H537.344V275.186H541.681V269.794Z" fill="#C7C7C7"/>
<path d="M541.681 278.963H537.344V284.355H541.681V278.963Z" fill="#C7C7C7"/>
<path d="M541.681 288.132H537.344V293.524H541.681V288.132Z" fill="#C7C7C7"/>
<path d="M541.681 297.284H537.344V302.677H541.681V297.284Z" fill="#C7C7C7"/>
<path d="M542.837 183.529H547.174V178.136H542.837V183.529Z" fill="#C7C7C7"/>
<path d="M381.191 165.933H349.281V314.93H381.191V165.933Z" fill="#EBEBEB"/>
<path d="M381.175 162.668H348.506V165.933H381.175V162.668Z" fill="#C7C7C7"/>
<path d="M355.398 170.732H352.166V314.93H355.398V170.732Z" fill="white"/>
<path d="M361.121 170.732H357.889V314.93H361.121V170.732Z" fill="white"/>
<path d="M366.844 170.732H363.611V314.93H366.844V170.732Z" fill="white"/>
<path d="M372.566 170.732H369.334V314.93H372.566V170.732Z" fill="white"/>
<path d="M378.289 170.732H375.057V314.93H378.289V170.732Z" fill="white"/>
<path d="M355.398 174.855H352.166V181.286H355.398V174.855Z" fill="#EBEBEB"/>
<path d="M361.121 174.855H357.889V181.286H361.121V174.855Z" fill="#EBEBEB"/>
<path d="M366.844 174.855H363.611V181.286H366.844V174.855Z" fill="#EBEBEB"/>
<path d="M372.566 174.855H369.334V181.286H372.566V174.855Z" fill="#EBEBEB"/>
<path d="M378.289 174.855H375.057V181.286H378.289V174.855Z" fill="#EBEBEB"/>
<path d="M355.398 185.326H352.166V191.774H355.398V185.326Z" fill="#EBEBEB"/>
<path d="M361.121 185.326H357.889V191.774H361.121V185.326Z" fill="#EBEBEB"/>
<path d="M366.844 185.326H363.611V191.774H366.844V185.326Z" fill="#EBEBEB"/>
<path d="M372.566 185.326H369.334V191.774H372.566V185.326Z" fill="#EBEBEB"/>
<path d="M378.289 185.326H375.057V191.774H378.289V185.326Z" fill="#EBEBEB"/>
<path d="M355.398 195.798H352.166V202.23H355.398V195.798Z" fill="#EBEBEB"/>
<path d="M361.121 195.798H357.889V202.23H361.121V195.798Z" fill="#EBEBEB"/>
<path d="M366.844 195.798H363.611V202.23H366.844V195.798Z" fill="#EBEBEB"/>
<path d="M372.566 195.798H369.334V202.23H372.566V195.798Z" fill="#EBEBEB"/>
<path d="M378.289 195.798H375.057V202.23H378.289V195.798Z" fill="#EBEBEB"/>
<path d="M355.398 206.253H352.166V212.701H355.398V206.253Z" fill="#EBEBEB"/>
<path d="M361.121 206.253H357.889V212.701H361.121V206.253Z" fill="#EBEBEB"/>
<path d="M366.844 206.253H363.611V212.701H366.844V206.253Z" fill="#EBEBEB"/>
<path d="M372.566 206.253H369.334V212.701H372.566V206.253Z" fill="#EBEBEB"/>
<path d="M378.289 206.253H375.057V212.701H378.289V206.253Z" fill="#EBEBEB"/>
<path d="M355.398 216.725H352.166V223.157H355.398V216.725Z" fill="#EBEBEB"/>
<path d="M361.121 216.725H357.889V223.157H361.121V216.725Z" fill="#EBEBEB"/>
<path d="M366.844 216.725H363.611V223.157H366.844V216.725Z" fill="#EBEBEB"/>
<path d="M372.566 216.725H369.334V223.157H372.566V216.725Z" fill="#EBEBEB"/>
<path d="M378.289 216.725H375.057V223.157H378.289V216.725Z" fill="#EBEBEB"/>
<path d="M355.398 227.197H352.166V233.645H355.398V227.197Z" fill="#EBEBEB"/>
<path d="M361.121 227.197H357.889V233.645H361.121V227.197Z" fill="#EBEBEB"/>
<path d="M366.844 227.197H363.611V233.645H366.844V227.197Z" fill="#EBEBEB"/>
<path d="M372.566 227.197H369.334V233.645H372.566V227.197Z" fill="#EBEBEB"/>
<path d="M378.289 227.197H375.057V233.645H378.289V227.197Z" fill="#EBEBEB"/>
<path d="M355.398 237.652H352.166V244.084H355.398V237.652Z" fill="#EBEBEB"/>
<path d="M361.121 237.652H357.889V244.084H361.121V237.652Z" fill="#EBEBEB"/>
<path d="M366.844 237.652H363.611V244.084H366.844V237.652Z" fill="#EBEBEB"/>
<path d="M372.566 237.652H369.334V244.084H372.566V237.652Z" fill="#EBEBEB"/>
<path d="M378.289 237.652H375.057V244.084H378.289V237.652Z" fill="#EBEBEB"/>
<path d="M355.398 248.124H352.166V254.556H355.398V248.124Z" fill="#EBEBEB"/>
<path d="M361.121 248.124H357.889V254.556H361.121V248.124Z" fill="#EBEBEB"/>
<path d="M366.844 248.124H363.611V254.556H366.844V248.124Z" fill="#EBEBEB"/>
<path d="M372.566 248.124H369.334V254.556H372.566V248.124Z" fill="#EBEBEB"/>
<path d="M378.289 248.124H375.057V254.556H378.289V248.124Z" fill="#EBEBEB"/>
<path d="M355.398 258.596H352.166V265.044H355.398V258.596Z" fill="#EBEBEB"/>
<path d="M361.121 258.596H357.889V265.044H361.121V258.596Z" fill="#EBEBEB"/>
<path d="M366.844 258.596H363.611V265.044H366.844V258.596Z" fill="#EBEBEB"/>
<path d="M372.566 258.596H369.334V265.044H372.566V258.596Z" fill="#EBEBEB"/>
<path d="M378.289 258.596H375.057V265.044H378.289V258.596Z" fill="#EBEBEB"/>
<path d="M355.398 269.051H352.166V275.483H355.398V269.051Z" fill="#EBEBEB"/>
<path d="M361.121 269.051H357.889V275.483H361.121V269.051Z" fill="#EBEBEB"/>
<path d="M366.844 269.051H363.611V275.483H366.844V269.051Z" fill="#EBEBEB"/>
<path d="M372.566 269.051H369.334V275.483H372.566V269.051Z" fill="#EBEBEB"/>
<path d="M378.289 269.051H375.057V275.483H378.289V269.051Z" fill="#EBEBEB"/>
<path d="M355.398 279.523H352.166V285.955H355.398V279.523Z" fill="#EBEBEB"/>
<path d="M361.121 279.523H357.889V285.955H361.121V279.523Z" fill="#EBEBEB"/>
<path d="M366.844 279.523H363.611V285.955H366.844V279.523Z" fill="#EBEBEB"/>
<path d="M372.566 279.523H369.334V285.955H372.566V279.523Z" fill="#EBEBEB"/>
<path d="M378.289 279.523H375.057V285.955H378.289V279.523Z" fill="#EBEBEB"/>
<path d="M355.398 289.979H352.166V296.41H355.398V289.979Z" fill="#EBEBEB"/>
<path d="M361.121 289.979H357.889V296.41H361.121V289.979Z" fill="#EBEBEB"/>
<path d="M366.844 289.979H363.611V296.41H366.844V289.979Z" fill="#EBEBEB"/>
<path d="M372.566 289.979H369.334V296.41H372.566V289.979Z" fill="#EBEBEB"/>
<path d="M378.289 289.979H375.057V296.41H378.289V289.979Z" fill="#EBEBEB"/>
<path d="M355.398 300.45H352.166V306.882H355.398V300.45Z" fill="#EBEBEB"/>
<path d="M361.121 300.45H357.889V306.882H361.121V300.45Z" fill="#EBEBEB"/>
<path d="M366.844 300.45H363.611V306.882H366.844V300.45Z" fill="#EBEBEB"/>
<path d="M372.566 300.45H369.334V306.882H372.566V300.45Z" fill="#EBEBEB"/>
<path d="M378.289 300.45H375.057V306.882H378.289V300.45Z" fill="#EBEBEB"/>
<path d="M355.398 310.922H352.166V314.93H355.398V310.922Z" fill="#EBEBEB"/>
<path d="M361.121 310.922H357.889V314.93H361.121V310.922Z" fill="#EBEBEB"/>
<path d="M366.844 310.922H363.611V314.93H366.844V310.922Z" fill="#EBEBEB"/>
<path d="M372.566 310.922H369.334V314.93H372.566V310.922Z" fill="#EBEBEB"/>
<path d="M378.289 310.922H375.057V314.93H378.289V310.922Z" fill="#EBEBEB"/>
<path d="M401.656 165.933H381.174V314.93H401.656V165.933Z" fill="#DBDBDB"/>
<path d="M402.546 162.668H381.174V165.933H402.546V162.668Z" fill="#C7C7C7"/>
<path d="M387.293 170.732H384.061V314.93H387.293V170.732Z" fill="#C7C7C7"/>
<path d="M393.031 170.732H389.799V314.93H393.031V170.732Z" fill="#C7C7C7"/>
<path d="M398.754 170.732H395.521V314.93H398.754V170.732Z" fill="#C7C7C7"/>
<path d="M387.293 174.855H384.061V181.286H387.293V174.855Z" fill="#DBDBDB"/>
<path d="M393.031 174.855H389.799V181.286H393.031V174.855Z" fill="#DBDBDB"/>
<path d="M398.754 174.855H395.521V181.286H398.754V174.855Z" fill="#DBDBDB"/>
<path d="M387.293 185.326H384.061V191.774H387.293V185.326Z" fill="#DBDBDB"/>
<path d="M393.031 185.326H389.799V191.774H393.031V185.326Z" fill="#DBDBDB"/>
<path d="M398.754 185.326H395.521V191.774H398.754V185.326Z" fill="#DBDBDB"/>
<path d="M387.293 195.798H384.061V202.23H387.293V195.798Z" fill="#DBDBDB"/>
<path d="M393.031 195.798H389.799V202.23H393.031V195.798Z" fill="#DBDBDB"/>
<path d="M398.754 195.798H395.521V202.23H398.754V195.798Z" fill="#DBDBDB"/>
<path d="M387.293 206.253H384.061V212.701H387.293V206.253Z" fill="#DBDBDB"/>
<path d="M393.031 206.253H389.799V212.701H393.031V206.253Z" fill="#DBDBDB"/>
<path d="M398.754 206.253H395.521V212.701H398.754V206.253Z" fill="#DBDBDB"/>
<path d="M387.293 216.725H384.061V223.157H387.293V216.725Z" fill="#DBDBDB"/>
<path d="M393.031 216.725H389.799V223.157H393.031V216.725Z" fill="#DBDBDB"/>
<path d="M398.754 216.725H395.521V223.157H398.754V216.725Z" fill="#DBDBDB"/>
<path d="M387.293 227.197H384.061V233.645H387.293V227.197Z" fill="#DBDBDB"/>
<path d="M393.031 227.197H389.799V233.645H393.031V227.197Z" fill="#DBDBDB"/>
<path d="M398.754 227.197H395.521V233.645H398.754V227.197Z" fill="#DBDBDB"/>
<path d="M387.293 237.652H384.061V244.084H387.293V237.652Z" fill="#DBDBDB"/>
<path d="M393.031 237.652H389.799V244.084H393.031V237.652Z" fill="#DBDBDB"/>
<path d="M398.754 237.652H395.521V244.084H398.754V237.652Z" fill="#DBDBDB"/>
<path d="M387.293 248.124H384.061V254.556H387.293V248.124Z" fill="#DBDBDB"/>
<path d="M393.031 248.124H389.799V254.556H393.031V248.124Z" fill="#DBDBDB"/>
<path d="M398.754 248.124H395.521V254.556H398.754V248.124Z" fill="#DBDBDB"/>
<path d="M387.293 258.596H384.061V265.044H387.293V258.596Z" fill="#DBDBDB"/>
<path d="M393.031 258.596H389.799V265.044H393.031V258.596Z" fill="#DBDBDB"/>
<path d="M398.754 258.596H395.521V265.044H398.754V258.596Z" fill="#DBDBDB"/>
<path d="M387.293 269.051H384.061V275.483H387.293V269.051Z" fill="#DBDBDB"/>
<path d="M393.031 269.051H389.799V275.483H393.031V269.051Z" fill="#DBDBDB"/>
<path d="M398.754 269.051H395.521V275.483H398.754V269.051Z" fill="#DBDBDB"/>
<path d="M387.293 279.523H384.061V285.955H387.293V279.523Z" fill="#DBDBDB"/>
<path d="M393.031 279.523H389.799V285.955H393.031V279.523Z" fill="#DBDBDB"/>
<path d="M398.754 279.523H395.521V285.955H398.754V279.523Z" fill="#DBDBDB"/>
<path d="M387.293 289.979H384.061V296.41H387.293V289.979Z" fill="#DBDBDB"/>
<path d="M393.031 289.979H389.799V296.41H393.031V289.979Z" fill="#DBDBDB"/>
<path d="M398.754 289.979H395.521V296.41H398.754V289.979Z" fill="#DBDBDB"/>
<path d="M387.293 300.45H384.061V306.882H387.293V300.45Z" fill="#DBDBDB"/>
<path d="M393.031 300.45H389.799V306.882H393.031V300.45Z" fill="#DBDBDB"/>
<path d="M398.754 300.45H395.521V306.882H398.754V300.45Z" fill="#DBDBDB"/>
<path d="M387.293 310.922H384.061V314.93H387.293V310.922Z" fill="#DBDBDB"/>
<path d="M393.031 310.922H389.799V314.93H393.031V310.922Z" fill="#DBDBDB"/>
<path d="M398.754 310.922H395.521V314.93H398.754V310.922Z" fill="#DBDBDB"/>
<path d="M311.022 220.683H279.26V314.93H311.022V220.683Z" fill="#EBEBEB"/>
<path d="M311.021 212.701H283.777V220.7H311.021V212.701Z" fill="#C7C7C7"/>
<path d="M307.558 224.855H282.756V314.929H307.558V224.855Z" fill="#DBDBDB"/>
<path d="M307.558 233.464H282.756V235.591H307.558V233.464Z" fill="white"/>
<path d="M307.558 242.27H282.756V244.397H307.558V242.27Z" fill="white"/>
<path d="M307.558 251.093H282.756V253.22H307.558V251.093Z" fill="white"/>
<path d="M307.558 259.899H282.756V262.026H307.558V259.899Z" fill="white"/>
<path d="M307.558 268.722H282.756V270.849H307.558V268.722Z" fill="white"/>
<path d="M307.558 277.544H282.756V279.672H307.558V277.544Z" fill="white"/>
<path d="M307.558 286.351H282.756V288.478H307.558V286.351Z" fill="white"/>
<path d="M307.558 295.173H282.756V297.301H307.558V295.173Z" fill="white"/>
<path d="M307.558 303.979H282.756V306.107H307.558V303.979Z" fill="white"/>
<path d="M307.558 312.802H282.756V314.929H307.558V312.802Z" fill="white"/>
<path d="M330.942 220.683H311.037V314.93H330.942V220.683Z" fill="#DBDBDB"/>
<path d="M327.957 212.701H311.037V220.7H327.957V212.701Z" fill="#A6A6A6"/>
<path d="M329.079 224.855H313.775V314.929H329.079V224.855Z" fill="#C7C7C7"/>
<path d="M329.079 233.464H313.775V235.591H329.079V233.464Z" fill="white"/>
<path d="M329.079 242.27H313.775V244.397H329.079V242.27Z" fill="white"/>
<path d="M329.079 251.093H313.775V253.22H329.079V251.093Z" fill="white"/>
<path d="M329.079 259.899H313.775V262.026H329.079V259.899Z" fill="white"/>
<path d="M329.079 268.722H313.775V270.849H329.079V268.722Z" fill="white"/>
<path d="M329.079 277.544H313.775V279.672H329.079V277.544Z" fill="white"/>
<path d="M329.079 286.351H313.775V288.478H329.079V286.351Z" fill="white"/>
<path d="M329.079 295.173H313.775V297.301H329.079V295.173Z" fill="white"/>
<path d="M329.079 303.979H313.775V306.107H329.079V303.979Z" fill="white"/>
<path d="M329.079 312.802H313.775V314.929H329.079V312.802Z" fill="white"/>
<path d="M491.121 220.683H459.359V314.93H491.121V220.683Z" fill="#EBEBEB"/>
<path d="M491.12 212.701H463.877V220.7H491.12V212.701Z" fill="#C7C7C7"/>
<path d="M487.658 224.855H462.855V314.929H487.658V224.855Z" fill="#DBDBDB"/>
<path d="M487.658 233.464H462.855V235.591H487.658V233.464Z" fill="white"/>
<path d="M487.658 242.27H462.855V244.397H487.658V242.27Z" fill="white"/>
<path d="M487.658 251.093H462.855V253.22H487.658V251.093Z" fill="white"/>
<path d="M487.658 259.899H462.855V262.026H487.658V259.899Z" fill="white"/>
<path d="M487.658 268.722H462.855V270.849H487.658V268.722Z" fill="white"/>
<path d="M487.658 277.544H462.855V279.672H487.658V277.544Z" fill="white"/>
<path d="M487.658 286.351H462.855V288.478H487.658V286.351Z" fill="white"/>
<path d="M487.658 295.173H462.855V297.301H487.658V295.173Z" fill="white"/>
<path d="M487.658 303.979H462.855V306.107H487.658V303.979Z" fill="white"/>
<path d="M487.658 312.802H462.855V314.929H487.658V312.802Z" fill="white"/>
<path d="M511.041 220.683H491.137V314.93H511.041V220.683Z" fill="#DBDBDB"/>
<path d="M508.057 212.701H491.137V220.7H508.057V212.701Z" fill="#A6A6A6"/>
<path d="M509.179 224.855H493.875V314.929H509.179V224.855Z" fill="#C7C7C7"/>
<path d="M509.179 233.464H493.875V235.591H509.179V233.464Z" fill="white"/>
<path d="M509.179 242.27H493.875V244.397H509.179V242.27Z" fill="white"/>
<path d="M509.179 251.093H493.875V253.22H509.179V251.093Z" fill="white"/>
<path d="M509.179 259.899H493.875V262.026H509.179V259.899Z" fill="white"/>
<path d="M509.179 268.722H493.875V270.849H509.179V268.722Z" fill="white"/>
<path d="M509.179 277.544H493.875V279.672H509.179V277.544Z" fill="white"/>
<path d="M509.179 286.351H493.875V288.478H509.179V286.351Z" fill="white"/>
<path d="M509.179 295.173H493.875V297.301H509.179V295.173Z" fill="white"/>
<path d="M509.179 303.979H493.875V306.107H509.179V303.979Z" fill="white"/>
<path d="M509.179 312.802H493.875V314.929H509.179V312.802Z" fill="white"/>
<path d="M404.344 213.378H375.748V314.946H404.344V213.378Z" fill="#DBDBDB"/>
<path d="M385.313 218.935H380.25V222.876H385.313V218.935Z" fill="#C7C7C7"/>
<path d="M385.313 227.329H380.25V231.27H385.313V227.329Z" fill="#C7C7C7"/>
<path d="M385.313 235.74H380.25V239.681H385.313V235.74Z" fill="#C7C7C7"/>
<path d="M385.313 244.15H380.25V248.091H385.313V244.15Z" fill="#C7C7C7"/>
<path d="M385.313 252.56H380.25V256.502H385.313V252.56Z" fill="#C7C7C7"/>
<path d="M385.313 260.954H380.25V264.896H385.313V260.954Z" fill="#C7C7C7"/>
<path d="M385.313 269.365H380.25V273.306H385.313V269.365Z" fill="#C7C7C7"/>
<path d="M392.602 218.935H387.539V222.876H392.602V218.935Z" fill="#C7C7C7"/>
<path d="M392.602 227.329H387.539V231.27H392.602V227.329Z" fill="#C7C7C7"/>
<path d="M392.602 235.74H387.539V239.681H392.602V235.74Z" fill="#C7C7C7"/>
<path d="M392.602 244.15H387.539V248.091H392.602V244.15Z" fill="#C7C7C7"/>
<path d="M392.602 252.56H387.539V256.502H392.602V252.56Z" fill="#C7C7C7"/>
<path d="M392.602 260.954H387.539V264.896H392.602V260.954Z" fill="#C7C7C7"/>
<path d="M392.602 269.365H387.539V273.306H392.602V269.365Z" fill="#C7C7C7"/>
<path d="M399.86 218.935H394.797V222.876H399.86V218.935Z" fill="#C7C7C7"/>
<path d="M399.86 227.329H394.797V231.27H399.86V227.329Z" fill="#C7C7C7"/>
<path d="M399.86 235.74H394.797V239.681H399.86V235.74Z" fill="#C7C7C7"/>
<path d="M399.86 244.15H394.797V248.091H399.86V244.15Z" fill="#C7C7C7"/>
<path d="M399.86 252.56H394.797V256.502H399.86V252.56Z" fill="#C7C7C7"/>
<path d="M399.86 260.954H394.797V264.896H399.86V260.954Z" fill="#C7C7C7"/>
<path d="M399.86 269.365H394.797V273.306H399.86V269.365Z" fill="#C7C7C7"/>
<path d="M385.313 277.775H380.25V281.717H385.313V277.775Z" fill="#C7C7C7"/>
<path d="M392.602 277.775H387.539V281.717H392.602V277.775Z" fill="#C7C7C7"/>
<path d="M399.86 277.775H394.797V281.717H399.86V277.775Z" fill="#C7C7C7"/>
<path d="M385.313 286.169H380.25V290.11H385.313V286.169Z" fill="#C7C7C7"/>
<path d="M392.602 286.169H387.539V290.11H392.602V286.169Z" fill="#C7C7C7"/>
<path d="M399.86 286.169H394.797V290.11H399.86V286.169Z" fill="#C7C7C7"/>
<path d="M385.313 294.58H380.25V298.521H385.313V294.58Z" fill="#C7C7C7"/>
<path d="M392.602 294.58H387.539V298.521H392.602V294.58Z" fill="#C7C7C7"/>
<path d="M399.86 294.58H394.797V298.521H399.86V294.58Z" fill="#C7C7C7"/>
<path d="M385.313 302.99H380.25V306.931H385.313V302.99Z" fill="#C7C7C7"/>
<path d="M392.602 302.99H387.539V306.931H392.602V302.99Z" fill="#C7C7C7"/>
<path d="M399.86 302.99H394.797V306.931H399.86V302.99Z" fill="#C7C7C7"/>
<path d="M424.413 213.378H404.344V314.946H424.413V213.378Z" fill="#A6A6A6"/>
<path d="M418.231 272.679H422.354V268.738H418.231V272.679Z" fill="#C7C7C7"/>
<path d="M418.231 264.269H422.354V260.328H418.231V264.269Z" fill="#C7C7C7"/>
<path d="M418.231 255.859H422.354V251.917H418.231V255.859Z" fill="#C7C7C7"/>
<path d="M418.231 247.448H422.354V243.507H418.231V247.448Z" fill="#C7C7C7"/>
<path d="M418.231 239.054H422.354V235.113H418.231V239.054Z" fill="#C7C7C7"/>
<path d="M418.231 230.644H422.354V226.702H418.231V230.644Z" fill="#C7C7C7"/>
<path d="M418.231 222.233H422.354V218.292H418.231V222.233Z" fill="#C7C7C7"/>
<path d="M412.309 272.679H416.432V268.738H412.309V272.679Z" fill="#C7C7C7"/>
<path d="M412.309 264.269H416.432V260.328H412.309V264.269Z" fill="#C7C7C7"/>
<path d="M412.309 255.859H416.432V251.917H412.309V255.859Z" fill="#C7C7C7"/>
<path d="M412.309 247.448H416.432V243.507H412.309V247.448Z" fill="#C7C7C7"/>
<path d="M412.309 239.054H416.432V235.113H412.309V239.054Z" fill="#C7C7C7"/>
<path d="M412.309 230.644H416.432V226.702H412.309V230.644Z" fill="#C7C7C7"/>
<path d="M412.309 222.233H416.432V218.292H412.309V222.233Z" fill="#C7C7C7"/>
<path d="M406.407 272.679H410.529V268.738H406.407V272.679Z" fill="#C7C7C7"/>
<path d="M406.407 264.269H410.529V260.328H406.407V264.269Z" fill="#C7C7C7"/>
<path d="M418.231 281.073H422.354V277.132H418.231V281.073Z" fill="#C7C7C7"/>
<path d="M412.309 281.073H416.432V277.132H412.309V281.073Z" fill="#C7C7C7"/>
<path d="M406.407 281.073H410.529V277.132H406.407V281.073Z" fill="#C7C7C7"/>
<path d="M418.231 289.484H422.354V285.542H418.231V289.484Z" fill="#C7C7C7"/>
<path d="M412.309 289.484H416.432V285.542H412.309V289.484Z" fill="#C7C7C7"/>
<path d="M406.407 289.484H410.529V285.542H406.407V289.484Z" fill="#C7C7C7"/>
<path d="M418.231 297.894H422.354V293.953H418.231V297.894Z" fill="#C7C7C7"/>
<path d="M412.309 297.894H416.432V293.953H412.309V297.894Z" fill="#C7C7C7"/>
<path d="M406.407 297.894H410.529V293.953H406.407V297.894Z" fill="#C7C7C7"/>
<path d="M418.231 306.288H422.354V302.347H418.231V306.288Z" fill="#C7C7C7"/>
<path d="M412.309 306.288H416.432V302.347H412.309V306.288Z" fill="#C7C7C7"/>
<path d="M406.407 306.288H410.529V302.347H406.407V306.288Z" fill="#C7C7C7"/>
<path d="M406.407 255.859H410.529V251.917H406.407V255.859Z" fill="#C7C7C7"/>
<path d="M406.407 247.448H410.529V243.507H406.407V247.448Z" fill="#C7C7C7"/>
<path d="M406.407 239.054H410.529V235.113H406.407V239.054Z" fill="#C7C7C7"/>
<path d="M406.407 230.644H410.529V226.702H406.407V230.644Z" fill="#C7C7C7"/>
<path d="M406.407 222.233H410.529V218.292H406.407V222.233Z" fill="#C7C7C7"/>
<path d="M634.972 213.378H606.377V314.946H634.972V213.378Z" fill="#DBDBDB"/>
<path d="M615.942 218.935H610.879V222.876H615.942V218.935Z" fill="#C7C7C7"/>
<path d="M615.942 227.329H610.879V231.27H615.942V227.329Z" fill="#C7C7C7"/>
<path d="M615.942 235.74H610.879V239.681H615.942V235.74Z" fill="#C7C7C7"/>
<path d="M615.942 244.15H610.879V248.091H615.942V244.15Z" fill="#C7C7C7"/>
<path d="M615.942 252.56H610.879V256.502H615.942V252.56Z" fill="#C7C7C7"/>
<path d="M615.942 260.954H610.879V264.896H615.942V260.954Z" fill="#C7C7C7"/>
<path d="M615.942 269.365H610.879V273.306H615.942V269.365Z" fill="#C7C7C7"/>
<path d="M623.213 218.935H618.15V222.876H623.213V218.935Z" fill="#C7C7C7"/>
<path d="M623.213 227.329H618.15V231.27H623.213V227.329Z" fill="#C7C7C7"/>
<path d="M623.213 235.74H618.15V239.681H623.213V235.74Z" fill="#C7C7C7"/>
<path d="M623.213 244.15H618.15V248.091H623.213V244.15Z" fill="#C7C7C7"/>
<path d="M623.213 252.56H618.15V256.502H623.213V252.56Z" fill="#C7C7C7"/>
<path d="M623.213 260.954H618.15V264.896H623.213V260.954Z" fill="#C7C7C7"/>
<path d="M623.213 269.365H618.15V273.306H623.213V269.365Z" fill="#C7C7C7"/>
<path d="M630.487 218.935H625.424V222.876H630.487V218.935Z" fill="#C7C7C7"/>
<path d="M630.487 227.329H625.424V231.27H630.487V227.329Z" fill="#C7C7C7"/>
<path d="M630.487 235.74H625.424V239.681H630.487V235.74Z" fill="#C7C7C7"/>
<path d="M630.487 244.15H625.424V248.091H630.487V244.15Z" fill="#C7C7C7"/>
<path d="M630.487 252.56H625.424V256.502H630.487V252.56Z" fill="#C7C7C7"/>
<path d="M630.487 260.954H625.424V264.896H630.487V260.954Z" fill="#C7C7C7"/>
<path d="M630.487 269.365H625.424V273.306H630.487V269.365Z" fill="#C7C7C7"/>
<path d="M615.942 277.775H610.879V281.717H615.942V277.775Z" fill="#C7C7C7"/>
<path d="M623.213 277.775H618.15V281.717H623.213V277.775Z" fill="#C7C7C7"/>
<path d="M630.487 277.775H625.424V281.717H630.487V277.775Z" fill="#C7C7C7"/>
<path d="M615.942 286.169H610.879V290.11H615.942V286.169Z" fill="#C7C7C7"/>
<path d="M623.213 286.169H618.15V290.11H623.213V286.169Z" fill="#C7C7C7"/>
<path d="M630.487 286.169H625.424V290.11H630.487V286.169Z" fill="#C7C7C7"/>
<path d="M615.942 294.58H610.879V298.521H615.942V294.58Z" fill="#C7C7C7"/>
<path d="M623.213 294.58H618.15V298.521H623.213V294.58Z" fill="#C7C7C7"/>
<path d="M630.487 294.58H625.424V298.521H630.487V294.58Z" fill="#C7C7C7"/>
<path d="M615.942 302.99H610.879V306.931H615.942V302.99Z" fill="#C7C7C7"/>
<path d="M623.213 302.99H618.15V306.931H623.213V302.99Z" fill="#C7C7C7"/>
<path d="M630.487 302.99H625.424V306.931H630.487V302.99Z" fill="#C7C7C7"/>
<path d="M655.04 213.378H634.971V314.946H655.04V213.378Z" fill="#A6A6A6"/>
<path d="M648.873 272.679H652.996V268.738H648.873V272.679Z" fill="#C7C7C7"/>
<path d="M648.873 264.269H652.996V260.328H648.873V264.269Z" fill="#C7C7C7"/>
<path d="M648.873 255.859H652.996V251.917H648.873V255.859Z" fill="#C7C7C7"/>
<path d="M648.873 247.448H652.996V243.507H648.873V247.448Z" fill="#C7C7C7"/>
<path d="M648.873 239.054H652.996V235.113H648.873V239.054Z" fill="#C7C7C7"/>
<path d="M648.873 230.644H652.996V226.702H648.873V230.644Z" fill="#C7C7C7"/>
<path d="M648.873 222.233H652.996V218.292H648.873V222.233Z" fill="#C7C7C7"/>
<path d="M642.938 272.679H647.061V268.738H642.938V272.679Z" fill="#C7C7C7"/>
<path d="M642.938 264.269H647.061V260.328H642.938V264.269Z" fill="#C7C7C7"/>
<path d="M642.938 255.859H647.061V251.917H642.938V255.859Z" fill="#C7C7C7"/>
<path d="M642.938 247.448H647.061V243.507H642.938V247.448Z" fill="#C7C7C7"/>
<path d="M642.938 239.054H647.061V235.113H642.938V239.054Z" fill="#C7C7C7"/>
<path d="M642.938 230.644H647.061V226.702H642.938V230.644Z" fill="#C7C7C7"/>
<path d="M642.938 222.233H647.061V218.292H642.938V222.233Z" fill="#C7C7C7"/>
<path d="M637.016 272.679H641.139V268.738H637.016V272.679Z" fill="#C7C7C7"/>
<path d="M637.016 264.269H641.139V260.328H637.016V264.269Z" fill="#C7C7C7"/>
<path d="M648.873 281.073H652.996V277.132H648.873V281.073Z" fill="#C7C7C7"/>
<path d="M642.938 281.073H647.061V277.132H642.938V281.073Z" fill="#C7C7C7"/>
<path d="M637.016 281.073H641.139V277.132H637.016V281.073Z" fill="#C7C7C7"/>
<path d="M648.873 289.484H652.996V285.542H648.873V289.484Z" fill="#C7C7C7"/>
<path d="M642.938 289.484H647.061V285.542H642.938V289.484Z" fill="#C7C7C7"/>
<path d="M637.016 289.484H641.139V285.542H637.016V289.484Z" fill="#C7C7C7"/>
<path d="M648.873 297.894H652.996V293.953H648.873V297.894Z" fill="#C7C7C7"/>
<path d="M642.938 297.894H647.061V293.953H642.938V297.894Z" fill="#C7C7C7"/>
<path d="M637.016 297.894H641.139V293.953H637.016V297.894Z" fill="#C7C7C7"/>
<path d="M648.873 306.288H652.996V302.347H648.873V306.288Z" fill="#C7C7C7"/>
<path d="M642.938 306.288H647.061V302.347H642.938V306.288Z" fill="#C7C7C7"/>
<path d="M637.016 306.288H641.139V302.347H637.016V306.288Z" fill="#C7C7C7"/>
<path d="M637.016 255.859H641.139V251.917H637.016V255.859Z" fill="#C7C7C7"/>
<path d="M637.016 247.448H641.139V243.507H637.016V247.448Z" fill="#C7C7C7"/>
<path d="M637.016 239.054H641.139V235.113H637.016V239.054Z" fill="#C7C7C7"/>
<path d="M637.016 230.644H641.139V226.702H637.016V230.644Z" fill="#C7C7C7"/>
<path d="M637.016 222.233H641.139V218.292H637.016V222.233Z" fill="#C7C7C7"/>
<path d="M574.895 196.474H557.926V216.511H574.895V196.474Z" fill="#DBDBDB"/>
<path d="M585.647 196.474H574.895V217.253H585.647V196.474Z" fill="#C7C7C7"/>
<path d="M586.355 205.33H575.686V217.253H586.355V205.33Z" fill="#DBDBDB"/>
<path d="M593.018 205.33H586.355V217.253H593.018V205.33Z" fill="#C7C7C7"/>
<path d="M578.853 215.225H551.412V314.946H578.853V215.225Z" fill="#EBEBEB"/>
<path d="M563.17 219.496H554.545V223.025H563.17V219.496Z" fill="white"/>
<path d="M574.203 219.496H565.578V223.025H574.203V219.496Z" fill="white"/>
<path d="M563.17 225.482H554.545V229.011H563.17V225.482Z" fill="white"/>
<path d="M574.203 225.482H565.578V229.011H574.203V225.482Z" fill="white"/>
<path d="M563.17 231.468H554.545V234.997H563.17V231.468Z" fill="white"/>
<path d="M574.203 231.468H565.578V234.997H574.203V231.468Z" fill="white"/>
<path d="M563.17 237.455H554.545V240.984H563.17V237.455Z" fill="white"/>
<path d="M574.203 237.455H565.578V240.984H574.203V237.455Z" fill="white"/>
<path d="M563.17 243.441H554.545V246.97H563.17V243.441Z" fill="white"/>
<path d="M574.203 243.441H565.578V246.97H574.203V243.441Z" fill="white"/>
<path d="M563.17 249.427H554.545V252.956H563.17V249.427Z" fill="white"/>
<path d="M574.203 249.427H565.578V252.956H574.203V249.427Z" fill="white"/>
<path d="M563.17 255.413H554.545V258.942H563.17V255.413Z" fill="white"/>
<path d="M574.203 255.413H565.578V258.942H574.203V255.413Z" fill="white"/>
<path d="M563.17 261.4H554.545V264.929H563.17V261.4Z" fill="white"/>
<path d="M574.203 261.4H565.578V264.929H574.203V261.4Z" fill="white"/>
<path d="M563.17 267.386H554.545V270.915H563.17V267.386Z" fill="white"/>
<path d="M574.203 267.386H565.578V270.915H574.203V267.386Z" fill="white"/>
<path d="M563.17 273.372H554.545V276.901H563.17V273.372Z" fill="white"/>
<path d="M574.203 273.372H565.578V276.901H574.203V273.372Z" fill="white"/>
<path d="M563.17 279.358H554.545V282.887H563.17V279.358Z" fill="white"/>
<path d="M574.203 279.358H565.578V282.887H574.203V279.358Z" fill="white"/>
<path d="M563.17 285.345H554.545V288.874H563.17V285.345Z" fill="white"/>
<path d="M574.203 285.345H565.578V288.874H574.203V285.345Z" fill="white"/>
<path d="M563.17 291.331H554.545V294.86H563.17V291.331Z" fill="white"/>
<path d="M574.203 291.331H565.578V294.86H574.203V291.331Z" fill="white"/>
<path d="M563.17 297.317H554.545V300.846H563.17V297.317Z" fill="white"/>
<path d="M574.203 297.317H565.578V300.846H574.203V297.317Z" fill="white"/>
<path d="M601.083 215.225H578.854V314.946H601.083V215.225Z" fill="#C7C7C7"/>
<path d="M591.764 300.83H598.855V297.301H591.764V300.83Z" fill="#EBEBEB"/>
<path d="M582.694 300.83H589.785V297.301H582.694V300.83Z" fill="#EBEBEB"/>
<path d="M591.764 294.843H598.855V291.314H591.764V294.843Z" fill="#EBEBEB"/>
<path d="M582.694 294.843H589.785V291.314H582.694V294.843Z" fill="#EBEBEB"/>
<path d="M591.764 288.857H598.855V285.328H591.764V288.857Z" fill="#EBEBEB"/>
<path d="M582.694 288.857H589.785V285.328H582.694V288.857Z" fill="#EBEBEB"/>
<path d="M591.764 282.871H598.855V279.342H591.764V282.871Z" fill="#EBEBEB"/>
<path d="M582.694 282.871H589.785V279.342H582.694V282.871Z" fill="#EBEBEB"/>
<path d="M591.764 276.901H598.855V273.372H591.764V276.901Z" fill="#EBEBEB"/>
<path d="M582.694 276.901H589.785V273.372H582.694V276.901Z" fill="#EBEBEB"/>
<path d="M591.764 270.915H598.855V267.386H591.764V270.915Z" fill="#EBEBEB"/>
<path d="M582.694 270.915H589.785V267.386H582.694V270.915Z" fill="#EBEBEB"/>
<path d="M591.764 264.929H598.855V261.4H591.764V264.929Z" fill="#EBEBEB"/>
<path d="M582.694 264.929H589.785V261.4H582.694V264.929Z" fill="#EBEBEB"/>
<path d="M591.764 258.942H598.855V255.413H591.764V258.942Z" fill="#EBEBEB"/>
<path d="M582.694 258.942H589.785V255.413H582.694V258.942Z" fill="#EBEBEB"/>
<path d="M591.764 252.956H598.855V249.427H591.764V252.956Z" fill="#EBEBEB"/>
<path d="M582.694 252.956H589.785V249.427H582.694V252.956Z" fill="#EBEBEB"/>
<path d="M591.764 246.97H598.855V243.441H591.764V246.97Z" fill="#EBEBEB"/>
<path d="M582.694 246.97H589.785V243.441H582.694V246.97Z" fill="#EBEBEB"/>
<path d="M591.764 240.984H598.855V237.455H591.764V240.984Z" fill="#EBEBEB"/>
<path d="M582.694 240.984H589.785V237.455H582.694V240.984Z" fill="#EBEBEB"/>
<path d="M591.764 234.997H598.855V231.468H591.764V234.997Z" fill="#EBEBEB"/>
<path d="M582.694 234.997H589.785V231.468H582.694V234.997Z" fill="#EBEBEB"/>
<path d="M591.764 229.028H598.855V225.499H591.764V229.028Z" fill="#EBEBEB"/>
<path d="M582.694 229.028H589.785V225.499H582.694V229.028Z" fill="#EBEBEB"/>
<path d="M591.764 223.041H598.855V219.512H591.764V223.041Z" fill="#EBEBEB"/>
<path d="M582.694 223.041H589.785V219.512H582.694V223.041Z" fill="#EBEBEB"/>
<path d="M462.178 249.955H429.822V314.93H462.178V249.955Z" fill="#C7C7C7"/>
<path d="M440.64 255.578H434.918V259.553H440.64V255.578Z" fill="#DBDBDB"/>
<path d="M440.64 264.088H434.918V268.062H440.64V264.088Z" fill="#DBDBDB"/>
<path d="M440.64 272.581H434.918V276.555H440.64V272.581Z" fill="#DBDBDB"/>
<path d="M440.64 281.09H434.918V285.064H440.64V281.09Z" fill="#DBDBDB"/>
<path d="M440.64 289.599H434.918V293.574H440.64V289.599Z" fill="#DBDBDB"/>
<path d="M440.64 298.092H434.918V302.067H440.64V298.092Z" fill="#DBDBDB"/>
<path d="M440.64 306.602H434.918V310.576H440.64V306.602Z" fill="#DBDBDB"/>
<path d="M448.871 255.578H443.148V259.553H448.871V255.578Z" fill="#DBDBDB"/>
<path d="M448.871 264.088H443.148V268.062H448.871V264.088Z" fill="#DBDBDB"/>
<path d="M448.871 272.581H443.148V276.555H448.871V272.581Z" fill="#DBDBDB"/>
<path d="M448.871 281.09H443.148V285.064H448.871V281.09Z" fill="#DBDBDB"/>
<path d="M448.871 289.599H443.148V293.574H448.871V289.599Z" fill="#DBDBDB"/>
<path d="M448.871 298.092H443.148V302.067H448.871V298.092Z" fill="#DBDBDB"/>
<path d="M448.871 306.602H443.148V310.576H448.871V306.602Z" fill="#DBDBDB"/>
<path d="M457.099 255.578H451.377V259.553H457.099V255.578Z" fill="#DBDBDB"/>
<path d="M457.099 264.088H451.377V268.062H457.099V264.088Z" fill="#DBDBDB"/>
<path d="M457.099 272.581H451.377V276.555H457.099V272.581Z" fill="#DBDBDB"/>
<path d="M457.099 281.09H451.377V285.064H457.099V281.09Z" fill="#DBDBDB"/>
<path d="M457.099 289.599H451.377V293.574H457.099V289.599Z" fill="#DBDBDB"/>
<path d="M457.099 298.092H451.377V302.067H457.099V298.092Z" fill="#DBDBDB"/>
<path d="M457.099 306.602H451.377V310.576H457.099V306.602Z" fill="#DBDBDB"/>
<path d="M462.178 243.193H440.641V249.971H462.178V243.193Z" fill="#DBDBDB"/>
<path d="M462.178 238.988H448.523V243.177H462.178V238.988Z" fill="#EBEBEB"/>
<path d="M484.903 249.955H462.195V314.93H484.903V249.955Z" fill="#A6A6A6"/>
<path d="M477.894 309.949H482.561V305.975H477.894V309.949Z" fill="#C7C7C7"/>
<path d="M477.894 301.44H482.561V297.465H477.894V301.44Z" fill="#C7C7C7"/>
<path d="M477.894 292.93H482.561V288.956H477.894V292.93Z" fill="#C7C7C7"/>
<path d="M477.894 284.438H482.561V280.463H477.894V284.438Z" fill="#C7C7C7"/>
<path d="M477.894 275.928H482.561V271.954H477.894V275.928Z" fill="#C7C7C7"/>
<path d="M477.894 267.435H482.561V263.461H477.894V267.435Z" fill="#C7C7C7"/>
<path d="M477.894 258.926H482.561V254.952H477.894V258.926Z" fill="#C7C7C7"/>
<path d="M471.198 309.949H475.865V305.975H471.198V309.949Z" fill="#C7C7C7"/>
<path d="M471.198 301.44H475.865V297.465H471.198V301.44Z" fill="#C7C7C7"/>
<path d="M471.198 292.93H475.865V288.956H471.198V292.93Z" fill="#C7C7C7"/>
<path d="M471.198 284.438H475.865V280.463H471.198V284.438Z" fill="#C7C7C7"/>
<path d="M471.198 275.928H475.865V271.954H471.198V275.928Z" fill="#C7C7C7"/>
<path d="M471.198 267.435H475.865V263.461H471.198V267.435Z" fill="#C7C7C7"/>
<path d="M471.198 258.926H475.865V254.952H471.198V258.926Z" fill="#C7C7C7"/>
<path d="M464.503 309.949H469.17V305.975H464.503V309.949Z" fill="#C7C7C7"/>
<path d="M464.503 301.44H469.17V297.465H464.503V301.44Z" fill="#C7C7C7"/>
<path d="M464.503 292.93H469.17V288.956H464.503V292.93Z" fill="#C7C7C7"/>
<path d="M464.503 284.438H469.17V280.463H464.503V284.438Z" fill="#C7C7C7"/>
<path d="M464.503 275.928H469.17V271.954H464.503V275.928Z" fill="#C7C7C7"/>
<path d="M464.503 267.435H469.17V263.461H464.503V267.435Z" fill="#C7C7C7"/>
<path d="M464.503 258.926H469.17V254.952H464.503V258.926Z" fill="#C7C7C7"/>
<path d="M481.457 243.193H462.195V249.971H481.457V243.193Z" fill="#C7C7C7"/>
<path d="M472.634 238.988H462.195V243.177H472.634V238.988Z" fill="#DBDBDB"/>
<path d="M675.293 249.955H642.938V314.93H675.293V249.955Z" fill="#C7C7C7"/>
<path d="M653.756 255.578H648.033V259.553H653.756V255.578Z" fill="#DBDBDB"/>
<path d="M653.756 264.088H648.033V268.062H653.756V264.088Z" fill="#DBDBDB"/>
<path d="M653.756 272.581H648.033V276.555H653.756V272.581Z" fill="#DBDBDB"/>
<path d="M653.756 281.09H648.033V285.064H653.756V281.09Z" fill="#DBDBDB"/>
<path d="M653.756 289.599H648.033V293.574H653.756V289.599Z" fill="#DBDBDB"/>
<path d="M653.756 298.092H648.033V302.067H653.756V298.092Z" fill="#DBDBDB"/>
<path d="M653.756 306.602H648.033V310.576H653.756V306.602Z" fill="#DBDBDB"/>
<path d="M661.984 255.578H656.262V259.553H661.984V255.578Z" fill="#DBDBDB"/>
<path d="M661.984 264.088H656.262V268.062H661.984V264.088Z" fill="#DBDBDB"/>
<path d="M661.984 272.581H656.262V276.555H661.984V272.581Z" fill="#DBDBDB"/>
<path d="M661.984 281.09H656.262V285.064H661.984V281.09Z" fill="#DBDBDB"/>
<path d="M661.984 289.599H656.262V293.574H661.984V289.599Z" fill="#DBDBDB"/>
<path d="M661.984 298.092H656.262V302.067H661.984V298.092Z" fill="#DBDBDB"/>
<path d="M661.984 306.602H656.262V310.576H661.984V306.602Z" fill="#DBDBDB"/>
<path d="M670.213 255.578H664.49V259.553H670.213V255.578Z" fill="#DBDBDB"/>
<path d="M670.213 264.088H664.49V268.062H670.213V264.088Z" fill="#DBDBDB"/>
<path d="M670.213 272.581H664.49V276.555H670.213V272.581Z" fill="#DBDBDB"/>
<path d="M670.213 281.09H664.49V285.064H670.213V281.09Z" fill="#DBDBDB"/>
<path d="M670.213 289.599H664.49V293.574H670.213V289.599Z" fill="#DBDBDB"/>
<path d="M670.213 298.092H664.49V302.067H670.213V298.092Z" fill="#DBDBDB"/>
<path d="M670.213 306.602H664.49V310.576H670.213V306.602Z" fill="#DBDBDB"/>
<path d="M675.308 243.193H653.754V249.971H675.308V243.193Z" fill="#DBDBDB"/>
<path d="M675.291 238.988H661.637V243.177H675.291V238.988Z" fill="#EBEBEB"/>
<path d="M698.001 249.955H675.293V314.93H698.001V249.955Z" fill="#A6A6A6"/>
<path d="M691.009 309.949H695.676V305.975H691.009V309.949Z" fill="#C7C7C7"/>
<path d="M691.009 301.44H695.676V297.465H691.009V301.44Z" fill="#C7C7C7"/>
<path d="M691.009 292.93H695.676V288.956H691.009V292.93Z" fill="#C7C7C7"/>
<path d="M691.009 284.438H695.676V280.463H691.009V284.438Z" fill="#C7C7C7"/>
<path d="M691.009 275.928H695.676V271.954H691.009V275.928Z" fill="#C7C7C7"/>
<path d="M691.009 267.435H695.676V263.461H691.009V267.435Z" fill="#C7C7C7"/>
<path d="M691.009 258.926H695.676V254.952H691.009V258.926Z" fill="#C7C7C7"/>
<path d="M684.313 309.949H688.98V305.975H684.313V309.949Z" fill="#C7C7C7"/>
<path d="M684.313 301.44H688.98V297.465H684.313V301.44Z" fill="#C7C7C7"/>
<path d="M684.313 292.93H688.98V288.956H684.313V292.93Z" fill="#C7C7C7"/>
<path d="M684.313 284.438H688.98V280.463H684.313V284.438Z" fill="#C7C7C7"/>
<path d="M684.313 275.928H688.98V271.954H684.313V275.928Z" fill="#C7C7C7"/>
<path d="M684.313 267.435H688.98V263.461H684.313V267.435Z" fill="#C7C7C7"/>
<path d="M684.313 258.926H688.98V254.952H684.313V258.926Z" fill="#C7C7C7"/>
<path d="M677.634 309.949H682.301V305.975H677.634V309.949Z" fill="#C7C7C7"/>
<path d="M677.634 301.44H682.301V297.465H677.634V301.44Z" fill="#C7C7C7"/>
<path d="M677.634 292.93H682.301V288.956H677.634V292.93Z" fill="#C7C7C7"/>
<path d="M677.634 284.438H682.301V280.463H677.634V284.438Z" fill="#C7C7C7"/>
<path d="M677.634 275.928H682.301V271.954H677.634V275.928Z" fill="#C7C7C7"/>
<path d="M677.634 267.435H682.301V263.461H677.634V267.435Z" fill="#C7C7C7"/>
<path d="M677.634 258.926H682.301V254.952H677.634V258.926Z" fill="#C7C7C7"/>
<path d="M694.555 243.193H675.293V249.971H694.555V243.193Z" fill="#C7C7C7"/>
<path d="M685.732 238.988H675.293V243.177H685.732V238.988Z" fill="#DBDBDB"/>
<path d="M0 314.93L87.2541 314.534L174.492 314.385L349 314.105L523.508 314.385L610.762 314.534L698 314.93L610.762 315.342L523.508 315.474L349 315.754L174.492 315.474L87.2541 315.325L0 314.93Z" fill="#263238"/>
<path d="M463.102 348.835H397.962L16.8047 718.845H339.106L463.102 348.835Z" fill="#0052B4"/>
<path d="M501.345 348.835H359.736L458.369 315.655L501.345 348.835Z" fill="#0052B4"/>
<path d="M187.999 394.12L147.414 405.68L236.598 534.722L304.821 456.555L187.999 394.12Z" fill="#0052B4"/>
<path d="M225.4 383.466L103.152 418.295L134.98 379.08L225.4 383.466Z" fill="#0052B4"/>
<path d="M597.042 394.12L618.217 405.68L312.506 566.715L375.452 456.555L597.042 394.12Z" fill="#0052B4"/>
<path d="M577.518 383.466L641.321 418.295L675.309 379.08L577.518 383.466Z" fill="#0052B4"/>
<g opacity="0.6">
<path d="M463.102 348.835H397.962L16.8047 718.845H339.106L463.102 348.835Z" fill="white"/>
<path d="M501.345 348.835H359.736L458.369 315.655L501.345 348.835Z" fill="white"/>
<path d="M187.999 394.12L147.414 405.68L236.598 534.722L304.821 456.555L187.999 394.12Z" fill="white"/>
<path d="M225.4 383.466L103.152 418.295L134.98 379.08L225.4 383.466Z" fill="white"/>
<path d="M597.042 394.12L618.217 405.68L312.506 566.715L375.452 456.555L597.042 394.12Z" fill="white"/>
<path d="M577.518 383.466L641.321 418.295L675.309 379.08L577.518 383.466Z" fill="white"/>
</g>
<path d="M24.471 618.645C24.471 618.645 16.6543 691.832 16.6543 691.882C16.9182 705.388 17.3964 717.245 18.3034 723.347C18.2957 723.379 18.2957 723.413 18.3034 723.446C18.3382 724.897 18.7108 726.32 19.3918 727.601C23.4816 730.24 102.82 731.246 106.596 730.009C110.373 728.772 107.157 717.905 103.001 714.507C98.8457 711.11 86.3619 692.36 86.3619 692.36L93.5026 619.239L24.471 618.645Z" fill="#F7A9A0"/>
<path d="M11.8066 692.624L90.0896 692.047C90.0896 692.047 97.5436 556.342 101.633 514.075C106.68 461.205 113.177 329.26 113.177 329.26H46.4543C46.4543 329.26 31.2991 361.583 40.8639 397.517L31.1506 527.252L11.8066 692.624Z" fill="#263238"/>
<path d="M85.7849 609.278C87.6648 588.961 89.3139 568.628 90.8971 548.261C94.0524 507.583 96.4436 466.845 98.0707 426.046C98.9942 403.157 99.7198 380.267 100.198 357.377C100.198 357.114 100.561 357.147 100.561 357.377C100.429 398.391 99.0437 439.437 96.9493 480.417C94.855 521.397 92.002 561.899 87.9947 602.451C85.7684 625.258 83.2947 648.049 80.1284 670.724C80.1362 670.746 80.1385 670.77 80.1352 670.793C80.1319 670.817 80.123 670.839 80.1092 670.859C80.0955 670.878 80.0774 670.894 80.0563 670.904C80.0353 670.915 80.0119 670.921 79.9883 670.921C79.9646 670.921 79.9412 670.915 79.9202 670.904C79.8992 670.894 79.881 670.878 79.8673 670.859C79.8536 670.839 79.8447 670.817 79.8413 670.793C79.838 670.77 79.8403 670.746 79.8481 670.724C81.8435 650.308 83.9049 629.81 85.7849 609.278Z" fill="#37474F"/>
<path d="M121.143 629.1C121.143 629.1 122.924 699.797 122.924 699.847C123.187 713.353 123.666 725.21 124.573 731.312C124.565 731.344 124.565 731.378 124.573 731.411C124.605 732.86 124.972 734.282 125.645 735.567V735.649C129.718 738.304 237.784 739.294 241.61 738.057C245.436 736.82 242.17 725.952 237.998 722.555C233.826 719.158 192.598 700.276 192.598 700.276L190.158 629.645L121.143 629.1Z" fill="#F7A9A0"/>
<path d="M81.6296 403.536C81.6296 403.536 104.602 504.131 105.492 522.667C106.251 538.499 117.745 701.1 117.745 701.1L198.947 700.21C198.947 700.21 178.531 534.541 176.981 518.05C174.095 487.211 156.417 402.926 135.753 327.76L48.2188 329.227C48.2188 329.227 49.637 368.806 68.1069 397.038C68.1564 397.055 76.3525 400.683 81.6296 403.536Z" fill="#263238"/>
<path d="M101.733 405.152C97.6913 405.186 93.654 404.888 89.6613 404.262C85.6981 403.445 81.7792 402.426 77.9196 401.211C74.1102 400.419 70.2547 399.868 66.3759 399.562C62.4781 399.063 58.6731 398.002 55.0795 396.412C55.0491 396.407 55.0179 396.412 54.9903 396.426C54.9628 396.439 54.9402 396.461 54.9257 396.489C54.9112 396.516 54.9055 396.547 54.9094 396.577C54.9134 396.608 54.9267 396.637 54.9476 396.659C58.4282 398.453 62.0523 399.953 65.7822 401.145C69.6576 402.299 73.6814 402.398 77.6063 403.289C81.5943 404.411 85.6479 405.287 89.7437 405.911C93.7562 406.335 97.8082 406.196 101.782 405.498C101.947 405.383 101.881 405.152 101.733 405.152Z" fill="#37474F"/>
<path d="M100.842 492.175C100.265 488.877 99.7206 485.661 99.094 482.429C97.8406 475.833 96.5543 469.319 95.1031 462.821C92.2337 449.892 89.5621 436.897 86.4783 424.018C84.7302 416.729 83.1801 409.341 81.0692 402.167C81.0692 401.986 80.7889 402.052 80.8054 402.167C81.6959 408.764 83.1471 415.36 84.3839 421.956C85.6208 428.553 86.9895 435.034 88.3418 441.564C91.0628 454.543 93.6849 467.538 96.7192 480.434C97.5768 484.045 98.3683 487.64 99.3908 491.235C100.413 494.83 101.04 498.673 102.244 502.251C102.244 502.291 102.259 502.328 102.287 502.356C102.315 502.384 102.353 502.4 102.392 502.4C102.432 502.4 102.469 502.384 102.497 502.356C102.525 502.328 102.541 502.291 102.541 502.251C102.194 498.805 101.436 495.49 100.842 492.175Z" fill="#37474F"/>
<path d="M133.658 372.087L141.904 409.753L149.968 447.468C152.656 460.034 155.229 472.633 157.818 485.233L161.594 504.148C162.204 507.298 162.847 510.497 163.243 513.713L164.266 523.31C166.772 548.904 169.169 574.504 171.456 600.109L174.754 638.533L177.904 676.974L173.946 638.616L170.12 600.225L162.649 523.475L161.66 513.894C161.347 510.711 160.72 507.611 160.143 504.445L156.432 485.529L148.813 447.732L141.211 409.918L133.658 372.087Z" fill="#37474F"/>
<path d="M100.694 232.177C95.2686 232.705 89.7111 224.394 89.002 217.434C89.002 216.923 90.1398 212.339 91.4756 206.666C92.2672 203.219 93.1247 199.344 93.57 195.782L115.256 204.242C113.374 208.542 112.023 213.055 111.232 217.682C111.183 218.175 111.183 218.672 111.232 219.166C111.224 219.248 111.224 219.331 111.232 219.413C111.265 222.266 105.938 231.65 100.694 232.177Z" fill="#F7A9A0"/>
<path d="M85.4395 165.62C82.4876 175.168 86.3136 199.096 93.0914 205.198C102.986 214.169 119.032 215.093 126.651 203.269C134.039 191.824 128.827 161.629 121.258 156.005C110.11 147.793 89.8097 151.52 85.4395 165.62Z" fill="#F7A9A0"/>
<path d="M86.7907 160.788C86.7907 160.788 81.2991 166.675 80.623 170.105C79.9469 173.535 80.623 186.695 86.23 195.089C88.2913 198.123 88.1759 204.472 91.5566 206.633C94.9372 208.793 110.307 199.921 111.346 197.299C112.385 194.677 109.697 186.118 109.12 182.556C108.542 178.994 112.698 178.285 113.819 178.878C120.845 182.638 121.669 191.972 122.329 190.422C122.988 188.872 125.182 184.073 125.314 180.643C125.446 177.213 119.36 166.856 119.624 164.152C119.888 161.447 123.747 163.311 126.221 162.882C127.754 162.618 127.375 153.383 125.281 151.751C123.186 150.118 118.684 150.943 116.755 150.811C114.825 150.679 112.5 148.205 107.355 148.073C102.21 147.941 96.0751 150.778 93.585 151.751C89.6271 153.251 86.7907 160.788 86.7907 160.788Z" fill="#263238"/>
<path d="M119.773 185.656C119.773 185.656 113.952 177.081 110.076 179.142C106.201 181.204 110.489 193.588 115.024 195.336C115.586 195.6 116.195 195.748 116.816 195.77C117.436 195.792 118.055 195.688 118.634 195.464C119.214 195.241 119.742 194.903 120.187 194.47C120.632 194.037 120.985 193.518 121.224 192.945L119.773 185.656Z" fill="#F7A9A0"/>
<path d="M111.347 182.671C111.347 182.671 111.248 182.754 111.347 182.787C114.513 184.123 116.129 187.091 117.267 190.158C117.088 189.837 116.842 189.558 116.544 189.341C116.247 189.124 115.907 188.975 115.546 188.903C115.185 188.831 114.813 188.838 114.455 188.923C114.098 189.009 113.763 189.172 113.474 189.4C113.456 189.407 113.441 189.42 113.431 189.436C113.42 189.452 113.415 189.471 113.415 189.49C113.415 189.51 113.42 189.528 113.431 189.545C113.441 189.561 113.456 189.573 113.474 189.581C114.033 189.409 114.632 189.415 115.187 189.598C115.743 189.781 116.227 190.133 116.574 190.604C117.186 191.4 117.706 192.263 118.125 193.176C118.273 193.473 118.784 193.325 118.685 192.995V192.912C118.751 188.839 115.684 183.133 111.347 182.671Z" fill="#263238"/>
<path d="M27.6705 369.053C27.7529 369.152 51.5825 376.82 59.96 376.82C61.2463 376.82 65.435 361.385 66.3255 361.484C67.216 361.583 69.3269 377.628 70.4812 377.612C96.4876 377.612 150.974 369.977 151.568 369.366C152.161 368.756 143.207 335.378 142.448 330.959C136.742 297.663 128.018 237.619 115.403 221.095C109.581 213.477 93.0245 210.079 87.6154 213.79C73.5651 223.421 67.4964 234.503 62.3511 246.525C58.5417 255.43 42.43 316.546 40.2202 326.028C37.4497 337.951 27.1922 368.459 27.6705 369.053Z" fill="#0052B4"/>
<path d="M107.241 238.015C103.069 275.087 102.64 302.479 103.696 310.213C106.384 330.002 116.476 364.634 120.352 372.186C122.858 377.134 169.693 372.186 167.384 366.728C159.534 348.126 140.652 301.687 140.405 301.028C138.756 296.509 133.726 264.368 127.113 241.66C120.5 218.952 109.369 219.183 107.241 238.015Z" fill="#F7A9A0"/>
<path d="M166.558 364.403C166.558 364.403 179.223 398.589 177.854 413.414C177.162 420.851 169.114 451.343 161.676 449.595C154.932 447.946 159.269 438.167 159.269 438.167C159.269 438.167 155.542 449.365 149.374 445.72C143.206 442.075 150.017 429.773 150.017 429.773C150.017 429.773 146.884 441.927 140.65 437.409C135.225 433.484 141.64 418.493 141.64 418.493C141.64 418.493 139.743 431.686 133.807 428.157C127.21 424.315 134.004 400.633 134.004 400.633C121.636 388.463 119.674 381.504 120.812 369.894C120.927 367.981 166.558 364.403 166.558 364.403Z" fill="#F7A9A0"/>
<path d="M148.633 433.302C149.144 432.313 149.623 431.323 150.117 430.334C151.116 428.425 152.003 426.459 152.773 424.447C153.498 422.468 154.125 420.472 154.685 418.46C155.246 416.448 155.675 414.107 156.335 411.996C156.342 411.976 156.344 411.954 156.342 411.933C156.339 411.912 156.331 411.892 156.319 411.875C156.307 411.857 156.291 411.843 156.272 411.833C156.253 411.823 156.232 411.818 156.211 411.818C156.19 411.818 156.169 411.823 156.15 411.833C156.131 411.843 156.115 411.857 156.103 411.875C156.09 411.892 156.083 411.912 156.08 411.933C156.077 411.954 156.08 411.976 156.087 411.996C155.458 414.096 154.715 416.161 153.861 418.18C153.086 420.175 152.294 422.171 151.503 424.166C150.711 426.162 150.084 428.108 149.359 430.07C148.996 431.059 148.584 432.032 148.188 432.989C147.743 433.884 147.379 434.816 147.1 435.776C147.1 435.858 147.199 435.908 147.265 435.776C147.804 435 148.262 434.171 148.633 433.302Z" fill="#263238"/>
<path d="M158.445 440.542C160.422 437.065 162.157 433.456 163.639 429.74C165.07 426.007 166.125 422.139 166.789 418.196C166.789 418.166 166.777 418.136 166.755 418.115C166.734 418.093 166.704 418.081 166.674 418.081C166.643 418.081 166.614 418.093 166.592 418.115C166.57 418.136 166.558 418.166 166.558 418.196C165.107 421.923 163.722 425.7 162.336 429.46C161.644 431.307 158.313 439.569 158.065 440.476C157.999 440.542 158.329 440.641 158.445 440.542Z" fill="#263238"/>
<path d="M139.249 426.805C141.034 423.498 142.599 420.077 143.933 416.564C144.956 412.854 145.7 409.072 146.159 405.251C146.159 405.119 145.961 405.053 145.928 405.251C144.889 408.945 143.916 412.655 142.63 416.283C142.036 418.064 139.332 425.007 138.854 426.755C138.919 426.838 139.15 426.937 139.249 426.805Z" fill="#263238"/>
<path d="M115.058 371.477L166.576 355.943C166.576 355.943 143.488 303.831 141.213 299.444C138.937 295.058 133.544 254.919 126.222 236.383C118.9 217.847 108.956 214.713 105.641 239.516C102.327 264.319 102.013 298.405 102.459 309.454C102.904 320.503 115.058 371.477 115.058 371.477Z" fill="#0052B4"/>
<path d="M159.434 345.9C157.488 346.164 155.591 346.807 153.662 347.268C151.732 347.73 149.852 348.241 147.956 348.786C144.295 349.808 140.65 350.896 137.022 352.001L126.122 355.3C122.362 356.454 118.486 357.46 114.825 358.911C114.79 358.911 114.757 358.925 114.732 358.95C114.707 358.975 114.693 359.008 114.693 359.043C114.693 359.078 114.707 359.112 114.732 359.136C114.757 359.161 114.79 359.175 114.825 359.175C118.668 358.433 122.477 357.18 126.254 356.124L137.435 353.007C141.161 351.952 144.888 350.88 148.599 349.709C150.413 349.148 152.227 348.588 154.025 347.961C155.865 347.417 157.676 346.779 159.45 346.048C159.681 346.065 159.566 345.883 159.434 345.9Z" fill="#263238"/>
<path d="M119.428 370.158L115.09 371.626H114.942V371.477C112.369 361.401 109.995 351.259 107.719 341.117L104.421 325.83C103.398 320.718 102.326 315.639 101.667 310.411C101.247 305.189 101.131 299.947 101.32 294.712C101.419 289.5 101.683 284.306 101.997 279.111C102.64 268.722 103.481 258.349 104.602 247.992C104.074 258.382 103.58 268.771 103.184 279.16C102.788 289.55 102.277 300.005 103.184 310.213C104.734 320.421 106.861 330.645 108.939 340.82L115.074 371.411L114.893 371.312L119.428 370.158Z" fill="#263238"/>
<path d="M102.673 250.994L102.953 253.269L103.283 255.496C103.497 256.996 103.778 258.481 103.893 260.031C103.185 258.649 102.706 257.162 102.475 255.628C102.21 254.087 102.278 252.507 102.673 250.994Z" fill="#263238"/>
<path d="M232.047 128.861C231.262 136.394 228.398 143.561 223.777 149.561C219.155 155.561 212.956 160.159 205.873 162.841C198.79 165.523 191.101 166.184 183.664 164.75C176.227 163.315 169.335 159.843 163.757 154.719L143.309 157.72L153.55 140.042C150.992 133.82 150.029 127.057 150.746 120.368C151.304 115.03 152.907 109.854 155.465 105.135C158.024 100.417 161.486 96.2481 165.655 92.8677C169.824 89.4873 174.618 86.9611 179.763 85.4335C184.909 83.9058 190.305 83.4065 195.643 83.9642C200.981 84.5218 206.157 86.1255 210.876 88.6836C215.594 91.2416 219.763 94.704 223.143 98.8731C226.524 103.042 229.05 107.836 230.578 112.982C232.105 118.127 232.605 123.523 232.047 128.861Z" fill="white"/>
<path d="M232.046 128.861C231.263 136.399 228.409 143.573 223.801 149.59C221.549 152.623 218.846 155.292 215.786 157.506C212.764 159.795 209.433 161.644 205.892 162.998C202.365 164.379 198.663 165.261 194.892 165.62C193.001 165.793 191.099 165.826 189.203 165.719C187.304 165.682 185.412 165.489 183.546 165.141C176.009 163.754 169.008 160.293 163.328 155.148L163.806 155.296L143.39 158.446L141.906 158.66L142.648 157.358L152.823 139.646V140.339C150.425 134.479 149.406 128.147 149.843 121.831C150.281 115.514 152.164 109.383 155.346 103.91C158.529 98.4613 162.904 93.8042 168.144 90.2885C173.379 86.8222 179.332 84.5854 185.555 83.7458C191.778 82.9062 198.11 83.4854 204.077 85.4401C209.984 87.4532 215.369 90.7541 219.843 95.1039C224.297 99.4416 227.71 104.733 229.823 110.58C231.937 116.427 232.697 122.678 232.046 128.861ZM232.046 128.861C232.711 122.704 231.952 116.476 229.829 110.659C227.706 104.841 224.274 99.5888 219.8 95.3071C215.325 91.0255 209.927 87.8288 204.022 85.9636C198.116 84.0985 191.861 83.6147 185.739 84.5496C179.681 85.4312 173.905 87.6876 168.853 91.146C163.862 94.6615 159.688 99.2121 156.616 104.487C153.601 109.786 151.83 115.702 151.438 121.786C151.055 127.863 152.035 133.948 154.308 139.597L154.456 139.96L154.258 140.289L143.968 157.935L143.242 156.863L163.707 153.993H163.988L164.186 154.191C169.647 159.304 176.426 162.794 183.761 164.267C185.591 164.65 187.45 164.876 189.318 164.943C191.179 165.075 193.047 165.075 194.908 164.943C198.642 164.653 202.316 163.843 205.826 162.536C209.364 161.255 212.697 159.467 215.72 157.226C217.225 156.108 218.662 154.902 220.024 153.614C221.353 152.285 222.597 150.875 223.751 149.392C228.349 143.44 231.219 136.337 232.046 128.861Z" fill="#263238"/>
<path d="M194.464 130.411V135.672C194.477 136.197 194.384 136.72 194.189 137.209C193.994 137.697 193.702 138.141 193.33 138.512C192.958 138.884 192.515 139.176 192.026 139.371C191.538 139.566 191.015 139.66 190.489 139.646C189.435 139.646 188.424 139.227 187.679 138.482C186.934 137.737 186.515 136.726 186.515 135.672V127.212C186.515 127.212 186.598 127.212 186.598 127.047C186.598 126.882 186.515 127.047 186.515 126.882C186.548 125.84 186.978 124.85 187.717 124.115C188.456 123.379 189.447 122.953 190.489 122.924C191.727 122.999 192.966 122.82 194.131 122.398C195.296 121.976 196.363 121.32 197.265 120.47C198.168 119.62 198.887 118.595 199.378 117.458C199.87 116.32 200.123 115.094 200.123 113.854C200.123 112.615 199.87 111.389 199.378 110.251C198.887 109.113 198.168 108.088 197.265 107.238C196.363 106.389 195.296 105.733 194.131 105.311C192.966 104.889 191.727 104.71 190.489 104.784C188.915 104.778 187.368 105.187 186.001 105.968C184.635 106.75 183.498 107.877 182.706 109.237C182.444 109.699 182.093 110.104 181.673 110.429C181.253 110.753 180.773 110.991 180.26 111.128C179.747 111.264 179.212 111.297 178.686 111.225C178.16 111.152 177.654 110.975 177.198 110.704C176.75 110.439 176.359 110.089 176.048 109.672C175.736 109.255 175.511 108.781 175.383 108.277C175.256 107.772 175.23 107.248 175.306 106.733C175.383 106.219 175.56 105.724 175.829 105.279C177.243 102.835 179.242 100.781 181.647 99.3009C184.051 97.8212 186.786 96.9624 189.605 96.8018C192.424 96.6411 195.239 97.1836 197.796 98.3806C200.353 99.5775 202.573 101.391 204.255 103.659C205.938 105.926 207.03 108.577 207.434 111.371C207.838 114.165 207.542 117.016 206.571 119.668C205.6 122.319 203.985 124.687 201.872 126.56C199.758 128.432 197.213 129.75 194.464 130.395V130.411ZM194.464 148.156V149.607C194.477 150.132 194.384 150.655 194.189 151.144C193.994 151.632 193.702 152.076 193.33 152.447C192.958 152.819 192.515 153.111 192.026 153.306C191.538 153.501 191.015 153.595 190.489 153.581C189.435 153.581 188.424 153.162 187.679 152.417C186.934 151.672 186.515 150.661 186.515 149.607V148.156C186.528 147.106 186.951 146.102 187.693 145.359C188.436 144.617 189.439 144.194 190.489 144.181C191.013 144.175 191.533 144.273 192.018 144.47C192.503 144.668 192.944 144.96 193.315 145.33C193.685 145.701 193.977 146.142 194.175 146.627C194.372 147.112 194.47 147.632 194.464 148.156Z" fill="#0052B4"/>
<path d="M398.061 537.278H442.586C442.586 537.278 441.119 530.995 438.15 530.55C437.263 530.469 436.373 530.662 435.6 531.105C434.827 531.548 434.209 532.217 433.83 533.024C433.83 533.024 433.962 524.267 428.437 522.766C422.913 521.265 418.295 529.016 418.295 529.016C418.295 529.016 414.832 524.613 410.05 524.894C405.267 525.174 404.146 532.463 404.146 532.463C404.146 532.463 399.957 529.923 398.061 537.278Z" fill="#455A64"/>
<path d="M692.493 592.903H625.391C625.391 592.903 625.539 582.909 632.135 580.27C633.925 579.491 635.92 579.316 637.818 579.771C639.717 580.227 641.415 581.288 642.657 582.794C642.657 582.794 645.345 564.423 657.647 564.423C669.949 564.423 675.787 580.27 675.787 580.27C676.828 578.755 678.29 577.577 679.993 576.882C681.696 576.188 683.564 576.007 685.369 576.362C692.229 577.253 692.493 592.903 692.493 592.903Z" fill="#455A64"/>
<path d="M652.551 607.101C652.551 607.101 648.907 590.149 641.667 587.543C634.428 584.937 629.992 592.49 629.992 592.49C629.992 592.49 628.343 576.296 618.003 571.448C607.663 566.599 599.995 576.527 599.995 576.527C599.995 576.527 592.112 555.979 578.012 555.979C563.912 555.979 556.788 586.141 556.788 586.141C556.788 586.141 548.46 577.187 539.934 582.249C531.408 587.312 531.408 607.151 531.408 607.151L652.551 607.101Z" fill="#37474F"/>
<path d="M392.896 641.254L246.439 641.408L246.481 680.953L392.938 680.8L392.896 641.254Z" fill="#0052B4"/>
<path d="M350.467 618.744L350.5 641.304L339.879 641.32V628.474L299.427 628.523V641.353L288.823 641.37L288.807 618.81L350.467 618.744Z" fill="#263238"/>
</svg>
