<svg width="80" height="80" viewBox="0 0 80 80" fill="none" xmlns="http://www.w3.org/2000/svg">
<path d="M69.21 56.77V22.864C69.21 21.0075 68.4725 19.227 67.1597 17.9143C65.847 16.6015 64.0665 15.864 62.21 15.864H58.633M10.849 56.77V22.863C10.849 21.0065 11.5865 19.226 12.8993 17.9133C14.212 16.6005 15.9925 15.863 17.849 15.863H48.599M39.849 34.109V37.799M39.849 34.109C39.8243 33.4395 39.5393 32.806 39.0546 32.3434C38.57 31.8808 37.924 31.6256 37.254 31.632C36.5847 31.6258 35.9394 31.8807 35.455 32.3427C34.9707 32.8046 34.6855 33.4372 34.66 34.106M39.849 34.109C39.8737 33.4395 40.1577 32.806 40.6424 32.3434C41.127 31.8808 41.773 31.6256 42.443 31.632C43.1128 31.6258 43.7586 31.8812 44.243 32.3437C44.7274 32.8063 45.0123 33.4396 45.037 34.109V36.484M34.66 34.106V23.546C34.591 22.159 33.469 21.019 32.065 21.019C30.648 21.019 29.559 22.172 29.42 23.546V39.676C29.42 40.567 28.342 41.013 27.712 40.382L24.18 36.838C23.167 35.841 21.493 35.769 20.467 36.789C19.458 37.858 19.478 39.435 20.518 40.478C24.196 44.15 27.842 47.859 31.556 51.495C33.693 53.417 36.203 54.377 39.086 54.377C44.851 54.377 50.276 49.865 50.276 43.965L50.226 36.485C50.226 35.088 49.012 33.958 47.632 33.958C46.221 33.958 45.103 35.094 45.037 36.484M34.66 34.106V37.8M34.66 34.106V34.11M45.037 36.484V37.8M7.03 64.142C4.901 64.142 3 62.278 3 60.11H29.698C29.9608 60.1099 30.221 60.1616 30.4638 60.2622C30.7066 60.3627 30.9272 60.5102 31.113 60.696L31.208 60.791C31.583 61.1661 32.0916 61.3769 32.622 61.377H47.378C47.9084 61.3769 48.417 61.1661 48.792 60.791L48.887 60.695C49.0729 60.5093 49.2935 60.3621 49.5363 60.2617C49.7791 60.1614 50.0393 60.1098 50.302 60.11H77C77 62.277 75.1 64.14 72.969 64.14H7.03V64.142ZM58.083 36.827L55.321 35.914C55.2514 35.8908 55.1906 35.8469 55.1467 35.7881C55.1027 35.7294 55.0778 35.6586 55.0752 35.5853C55.0726 35.512 55.0924 35.4397 55.1321 35.378C55.1717 35.3162 55.2293 35.2681 55.297 35.24L58.083 34.088L58.918 31.359C59.024 31.011 59.521 31.023 59.611 31.375L60.302 34.088L63.125 35.239C63.1934 35.2667 63.2517 35.3149 63.2918 35.3768C63.332 35.4388 63.3521 35.5116 63.3495 35.5854C63.3469 35.6592 63.3216 35.7304 63.2772 35.7894C63.2327 35.8483 63.1712 35.8922 63.101 35.915L60.303 36.827L59.611 39.541C59.521 39.893 59.024 39.905 58.918 39.557L58.083 36.827ZM55.633 22.429L59.741 21.117C60.47 20.885 60.488 19.861 59.768 19.602L55.632 18.116L54.348 13.956C54.114 13.2 53.039 13.207 52.816 13.967L51.597 18.117L47.461 19.602C46.741 19.861 46.76 20.885 47.488 21.117L51.597 22.429L52.816 26.579C53.039 27.34 54.114 27.347 54.348 26.59L55.633 22.429Z" stroke="#FF7800" stroke-width="1.5" stroke-linecap="round" stroke-linejoin="round"/>
</svg>
