<svg width="33" height="33" viewBox="0 0 33 33" fill="none" xmlns="http://www.w3.org/2000/svg">
<g clip-path="url(#clip0_2_2168)">
<path d="M61.3501 -91.7656L62.0501 -89.0156M62.0501 -89.0156C64.6171 -89.7156 67.0501 -89.3986 69.3501 -88.0656M62.0501 -89.0156C59.4831 -88.3156 57.5331 -86.8326 56.2001 -84.5656M69.3501 -88.0656C71.6171 -86.7656 73.1001 -84.8326 73.8001 -82.2656M69.3501 -88.0656L66.6001 -83.4656M56.2001 -84.5656C54.8671 -82.2656 54.5501 -79.8326 55.2501 -77.2656M56.2001 -84.5656L60.8001 -81.9156M73.8001 -82.2656L76.5501 -82.9656M73.8001 -82.2656C74.5001 -79.6986 74.1831 -77.2656 72.8501 -74.9656M66.6001 -83.4656C64.5861 -84.6736 61.9681 -83.9266 60.8001 -81.9156M66.6001 -83.4656C68.5611 -82.2236 69.2691 -79.6866 68.2001 -77.6156M72.8501 -74.9656L68.2001 -77.6156M72.8501 -74.9656C71.5501 -72.6656 69.6171 -71.1656 67.0501 -70.4656M52.5001 -76.5156L55.2501 -77.2656M55.2501 -77.2656C55.9501 -74.6986 57.4331 -72.7656 59.7001 -71.4656M59.7001 -71.4656L62.3501 -76.1156M59.7001 -71.4656C62.0331 -70.0986 64.4831 -69.7656 67.0501 -70.4656M60.8001 -81.9156C59.6641 -79.9106 60.3821 -77.2966 62.3501 -76.1156M62.3501 -76.1156C64.3661 -75.1076 66.9571 -75.6826 68.2001 -77.6156M67.0501 -70.4656L67.8001 -67.7156M-46.3999 24.9844H-26.5329M-46.3999 15.9844H-16.5999M-46.3999 7.48438H-21.5659" stroke="black" stroke-width="1.2" stroke-linecap="round" stroke-linejoin="round"/>
<path d="M78.1 17.1343C78.367 16.9013 78.5 16.6174 78.5 16.2844C78.5 15.9514 78.367 15.6513 78.1 15.3843L75.6 12.8843C75.033 12.2513 74.75 11.5514 74.75 10.7844V7.23435C74.75 6.90135 74.633 6.60135 74.4 6.33435C74.167 6.10135 73.867 5.98435 73.5 5.98435H69.95C69.183 5.98435 68.483 5.70134 67.85 5.13434L65.35 2.63434C65.2397 2.52112 65.1074 2.43167 64.9612 2.37148C64.815 2.31129 64.6581 2.28164 64.5 2.28435C64.167 2.28435 63.867 2.40134 63.6 2.63434L61.1 5.13434C60.467 5.70134 59.767 5.98435 59 5.98435H55.45C55.117 5.98435 54.817 6.10135 54.55 6.33435C54.317 6.60135 54.2 6.90135 54.2 7.23435V10.7844C54.2 11.5514 53.917 12.2513 53.35 12.8843L50.85 15.3843C50.617 15.6513 50.5 15.9514 50.5 16.2844C50.5 16.6174 50.617 16.9013 50.85 17.1343L53.35 19.6343C53.917 20.2673 54.2 20.9673 54.2 21.7343V25.2844C54.2 25.6514 54.317 25.9513 54.55 26.1843C54.817 26.4173 55.117 26.5344 55.45 26.5344H59C59.767 26.5344 60.467 26.8173 61.1 27.3843L63.6 29.8843C63.867 30.1513 64.167 30.2844 64.5 30.2844C64.833 30.2844 65.117 30.1513 65.35 29.8843L67.85 27.3843C68.483 26.8173 69.183 26.5344 69.95 26.5344H73.5C73.867 26.5344 74.167 26.4173 74.4 26.1843C74.633 25.9513 74.75 25.6514 74.75 25.2844V21.7343C74.75 20.9673 75.033 20.2673 75.6 19.6343L78.1 17.1343ZM58.55 17.1343C58.383 16.9673 58.3 16.7844 58.3 16.5844C58.3 16.3844 58.383 16.2174 58.55 16.0844C58.683 15.9174 58.85 15.8344 59.05 15.8344C59.25 15.8344 59.433 15.9174 59.6 16.0844L62.55 19.0344L69.3 12.2844C69.433 12.1174 69.6 12.0344 69.8 12.0344C70 12.0344 70.183 12.1174 70.35 12.2844C70.483 12.4174 70.55 12.5844 70.55 12.7844C70.55 12.9844 70.483 13.1674 70.35 13.3344L63.1 20.6343C62.9456 20.763 62.751 20.8338 62.55 20.8344C62.4574 20.8368 62.3653 20.8203 62.2794 20.786C62.1934 20.7516 62.1153 20.7 62.05 20.6343L58.55 17.1343ZM17.833 19.8673C17.833 13.3633 22.506 6.57435 29.942 4.52335C30.653 4.32735 31.385 4.70535 31.695 5.37535L31.756 5.50734C32.146 6.35034 31.729 7.35035 30.97 7.88735C29.167 9.16335 27.66 11.3164 26.988 13.2504C26.708 14.0564 27.313 14.8164 28.107 15.1314C29.4029 15.6441 30.5148 16.5347 31.2982 17.6874C32.0816 18.84 32.5003 20.2016 32.5 21.5953C32.5 25.8383 29.055 28.2343 25.568 28.2343C21.548 28.2343 17.833 25.1613 17.833 19.8673ZM0.5 19.8673C0.5 13.3633 5.173 6.57435 12.609 4.52335C13.32 4.32735 14.052 4.70535 14.362 5.37535L14.422 5.50734C14.813 6.35034 14.395 7.35035 13.637 7.88735C11.834 9.16335 10.327 11.3164 9.655 13.2504C9.374 14.0564 9.98 14.8164 10.773 15.1314C12.0691 15.644 13.1812 16.5344 13.9648 17.6871C14.7483 18.8398 15.1672 20.2015 15.167 21.5953C15.167 25.8383 11.721 28.2343 8.235 28.2343C4.215 28.2343 0.5 25.1613 0.5 19.8673Z" fill="black"/>
<path d="M408.95 -175.766H392.1M124.988 -38.0066V-25.2066C124.988 -24.411 124.672 -23.6479 124.109 -23.0853C123.547 -22.5227 122.784 -22.2066 121.988 -22.2066H102.988C102.192 -22.2066 101.429 -22.5227 100.867 -23.0853C100.304 -23.6479 99.988 -24.411 99.988 -25.2066V-38.0566M124.988 -38.0066V-38.2566C124.988 -39.0523 124.672 -39.8153 124.109 -40.3779C123.547 -40.9406 122.784 -41.2566 121.988 -41.2566H102.988C102.192 -41.2566 101.429 -40.9406 100.867 -40.3779C100.304 -39.8153 99.988 -39.0523 99.988 -38.2566V-38.0566M124.988 -38.0066L115.734 -30.0116C114.822 -29.2238 113.656 -28.7919 112.451 -28.7954C111.246 -28.7989 110.082 -29.2375 109.175 -30.0306L99.988 -38.0566M160.499 -27.1156V-26.0156M160.499 -34.8156V-29.6156M197.561 -38.5286C197.284 -39.7746 197.604 -41.0686 198.495 -42.0026C199.533 -42.9466 201.018 -43.3286 202.334 -42.7806M214.631 -42.7806C215.898 -43.3566 217.456 -42.9646 218.419 -42.0026C219.309 -41.0686 219.63 -39.7746 219.353 -38.5286M208.405 -37.8546V-31.2176L205.966 -28.7286M-90.3 -137.416L-88.3 -130.366M-88.3 -130.366L-81.05 -132.166M-88.3 -130.366C-87.266 -134.763 -83.17 -137.766 -78.7 -137.766C-73.22 -137.766 -68.7001 -133.249 -68.7001 -127.766C-68.7001 -122.318 -73.252 -117.766 -78.7 -117.766C-83.215 -117.766 -87.394 -120.924 -88.4 -125.366M-25.05 -127.866V-121.766C-25.05 -120.44 -25.5768 -119.168 -26.5145 -118.23C-27.4522 -117.292 -28.724 -116.766 -30.0501 -116.766H-37.5C-38.8261 -116.766 -40.0979 -117.292 -41.0356 -118.23C-41.9733 -119.168 -42.5 -120.44 -42.5 -121.766V-129.216C-42.5 -130.542 -41.9733 -131.813 -41.0356 -132.751C-40.0979 -133.689 -38.8261 -134.216 -37.5 -134.216H-31.4001M-28.1 -138.766H-20.5M-20.5 -138.766V-131.166M-20.5 -138.766L-34.4001 -124.816M197.5 16.4814L202.83 21.8114C203.071 22.0529 203.358 22.2446 203.673 22.3753C203.989 22.506 204.327 22.5733 204.668 22.5733C205.01 22.5733 205.348 22.506 205.664 22.3753C205.979 22.2446 206.266 22.0529 206.507 21.8114L219.5 8.81837M532.501 -70.9686C532.501 -69.8056 533.444 -68.8616 534.607 -68.8616H540.534L541.649 -68.4916C543.5 -67.8766 545.5 -67.8797 547.349 -68.5006L548.427 -68.8616H554.394C554.953 -68.8616 555.489 -69.0836 555.884 -69.4788C556.279 -69.8739 556.501 -70.4098 556.501 -70.9686M544.501 -88.6146V-70.6486M544.501 -88.6146L534.796 -90.4986C534.42 -90.5716 534.032 -90.5605 533.66 -90.4659C533.288 -90.3714 532.942 -90.1959 532.646 -89.9519C532.351 -89.7079 532.113 -89.4015 531.949 -89.0546C531.786 -88.7078 531.701 -88.3291 531.701 -87.9456V-75.6066C531.701 -74.9102 531.943 -74.2354 532.386 -73.698C532.829 -73.1606 533.445 -72.7942 534.129 -72.6616L544.501 -70.6486M544.501 -88.6146L554.21 -90.4816C554.586 -90.554 554.974 -90.5423 555.345 -90.4475C555.716 -90.3526 556.061 -90.177 556.357 -89.933C556.652 -89.6891 556.89 -89.383 557.053 -89.0365C557.216 -88.69 557.301 -88.3117 557.301 -87.9286V-75.5876C557.301 -74.8902 557.058 -74.2144 556.614 -73.6768C556.17 -73.1391 555.552 -72.773 554.867 -72.6416L544.501 -70.6486M540.501 -84.5156L535.701 -85.4476M540.501 -80.5156L535.701 -81.4466M540.501 -76.5156L535.701 -77.4466M548.501 -84.5156L553.301 -85.4476M548.501 -80.5156L553.301 -81.4466M548.501 -76.5156L553.301 -77.4466M56.713 -42.7506L59.09 -42.5786L60.847 -36.8296L58.711 -34.2126C60.48 -30.6326 63.236 -27.8666 66.979 -25.9156L69.632 -28.0846L75.351 -26.2946L75.558 -23.9536C74.272 -21.7956 72.515 -20.7286 70.287 -20.7516C67.232 -20.7056 63.73 -22.4046 59.779 -25.8466L58.642 -27.0176C55.197 -30.9656 53.486 -34.4766 53.509 -37.5526C53.486 -39.7786 54.554 -41.5116 56.713 -42.7506ZM162.365 -41.0546L172.125 -24.6406C172.997 -23.1736 171.94 -21.3156 170.234 -21.3156H150.764C149.06 -21.3156 148.003 -23.1696 148.87 -24.6356L158.581 -41.0506C159.432 -42.4886 161.512 -42.4906 162.365 -41.0546ZM218.989 -31.2176C218.989 -37.0326 214.222 -41.7956 208.405 -41.7956C202.612 -41.7956 197.872 -36.9866 197.872 -31.2176C197.872 -25.4536 202.621 -20.6406 208.405 -20.6406C214.213 -20.6406 218.989 -25.4076 218.989 -31.2176Z" stroke="black" stroke-width="1.2" stroke-linecap="round" stroke-linejoin="round"/>
</g>
<defs>
<clipPath id="clip0_2_2168">
<rect width="32" height="32" fill="white" transform="translate(0.5 0.234375)"/>
</clipPath>
</defs>
</svg>
