<svg width="80" height="80" viewBox="0 0 80 80" fill="none" xmlns="http://www.w3.org/2000/svg">
<path d="M18.608 22.758H17.977C16.2796 22.758 14.6517 23.4323 13.4515 24.6325C12.2513 25.8327 11.577 27.4606 11.577 29.158V61M68.423 61V29.16C68.423 27.4626 67.7487 25.8347 66.5485 24.6345C65.3483 23.4343 63.7204 22.76 62.023 22.76H61.442M36.26 39.67C37.357 40.314 38.836 40.584 40 40.584M40 40.584V33.322M40 40.584V43.326M40 40.584C41.812 40.584 43.99 39.197 43.99 37.181C43.99 34.996 41.65 34.114 40 33.322M40 33.322V26.111M40 33.322C38.291 32.552 36.011 31.745 36.011 29.513C36.011 27.505 38.149 26.11 40.001 26.11M40.001 26.11V23.317M40.001 26.11C41.163 26.112 42.593 26.382 43.691 27.025M73.558 67.5H6.441C4.599 67.374 3.068 65.928 3 64.047V63.945H31.04C31.54 63.945 32.02 64.146 32.37 64.504C32.5439 64.6807 32.7513 64.821 32.98 64.9168C33.2086 65.0126 33.4541 65.0619 33.702 65.062H46.298C46.798 65.062 47.278 64.861 47.629 64.504C47.8027 64.3269 48.01 64.1863 48.2387 64.0903C48.4674 63.9943 48.713 63.9449 48.961 63.945H77C76.933 65.804 75.374 67.302 73.56 67.5H73.558ZM58.95 33.119V19.763C58.95 18.207 58.014 17.7 56.656 17.273L42.246 13.008C40.527 12.494 39.467 12.464 37.757 13.008L23.347 17.274C21.966 17.707 21.102 18.198 21.102 19.764V33.169C21.102 43.795 29.994 51.249 38.513 56.219C39.403 56.739 40.501 56.742 41.392 56.224C49.954 51.241 58.95 43.349 58.95 33.119Z" stroke="#FF7800" stroke-width="1.5" stroke-linecap="round" stroke-linejoin="round"/>
</svg>
