<svg width="80" height="80" viewBox="0 0 80 80" fill="none" xmlns="http://www.w3.org/2000/svg">
<path d="M53.667 35C49.086 31.833 43.93 30.25 38.2 30.25C30.833 30.25 24.417 32.867 18.95 38.1C18.117 39.3 18.05 40.383 18.75 41.35L23.2 46.25C24.2 47.25 25.367 47.217 26.7 46.15C30 43.317 33.833 41.9 38.2 41.9C38.675 41.9 39.144 41.917 39.606 41.95M39.606 47.597C39.1392 47.5417 38.67 47.5093 38.2 47.5C34.833 47.567 31.933 48.767 29.5 51.1C29 51.6 29 52.233 29.5 53C30.667 54.567 33.217 57.367 37.15 61.4C37.817 62 38.583 62 39.25 61.4C39.867 60.767 40.45 60.164 41 59.592M38.2 13C26.867 13 17.033 17.167 8.69999 25.5C7.76699 26.7 7.76699 27.867 8.69999 29L13.2 33.9C14.067 34.733 15 34.733 16 33.9C22.2 27.7 29.6 24.6 38.2 24.6C46.8 24.6 54.2 27.7 60.4 33.9C61.4 34.733 62.333 34.733 63.2 33.9L67.7 29C68.633 27.867 68.633 26.7 67.7 25.5C59.367 17.167 49.533 13 38.2 13ZM72 51.2C72 53.628 71.656 56.336 71.149 57.885C69.559 62.797 65.341 67.093 58.493 70.772C58.1838 70.9231 57.8442 71.0016 57.5 71.0016C57.1558 71.0016 56.8162 70.9231 56.507 70.772C49.659 67.092 45.285 62.862 43.88 57.885C43.345 55.99 42.982 53.647 43 51.2C43.02 48.753 43 45.288 43 45.26C43 43.212 44.259 41.66 46.094 41.186C47.308 40.873 55.457 38.456 55.457 38.456C56.974 37.956 58.134 37.992 59.657 38.456C59.657 38.456 67.11 40.674 68.964 41.186C70.818 41.698 72 43.183 72 45.26V51.2Z" stroke="#FF7800" stroke-width="1.5" stroke-linecap="round" stroke-linejoin="round"/>
</svg>
